<svg width="14" height="14" viewBox="0 0 14 14" fill="none" xmlns="http://www.w3.org/2000/svg">
<rect x="0.5" y="0.5" width="13" height="13" rx="6.5" fill="#9035FF"/>
<rect x="0.5" y="0.5" width="13" height="13" rx="6.5" stroke="white"/>
<g clip-path="url(#clip0_8860_2935)">
<path d="M9.4502 3.6167H4.5502C3.87236 3.6167 3.3252 4.15978 3.3252 4.82945V9.28437C3.3252 9.95403 3.87236 10.4971 4.5502 10.4971H4.86053C5.1872 10.4971 5.49753 10.6237 5.7262 10.8524L6.42445 11.5424C6.74295 11.8569 7.26153 11.8569 7.58003 11.5424L8.27828 10.8524C8.50695 10.6237 8.82136 10.4971 9.14395 10.4971H9.4502C10.128 10.4971 10.6752 9.95403 10.6752 9.28437V4.82945C10.6752 4.15978 10.128 3.6167 9.4502 3.6167ZM7.0002 5.14795C7.52695 5.14795 7.95161 5.57262 7.95161 6.09937C7.95161 6.62612 7.52695 7.05078 7.0002 7.05078C6.47345 7.05078 6.04878 6.62203 6.04878 6.09937C6.04878 5.57262 6.47345 5.14795 7.0002 5.14795ZM8.09453 8.94953H5.90586C5.57511 8.94953 5.3832 8.58203 5.56695 8.30845C5.84461 7.89603 6.38361 7.61837 7.0002 7.61837C7.61678 7.61837 8.15578 7.89603 8.43345 8.30845C8.6172 8.58203 8.4212 8.94953 8.09453 8.94953Z" fill="white"/>
</g>
<defs>
<clipPath id="clip0_8860_2935">
<rect width="9.8" height="7.7" fill="white" transform="translate(2.1001 2.80005)"/>
</clipPath>
</defs>
</svg>
