<svg width="14" height="14" viewBox="0 0 14 14" fill="none" xmlns="http://www.w3.org/2000/svg">
<g id="Frame 1000001790">
<rect x="0.5" y="0.5" width="13" height="13" rx="6.5" fill="#9035FF"/>
<rect x="0.5" y="0.5" width="13" height="13" rx="6.5" stroke="white"/>
<path id="Vector" d="M9.82478 5.41875H9.33746L9.82478 4.4731L9.33746 4.23655L8.36224 5.41818H7.26534V4.70909L7.87436 4.47254V4L5.9245 4.00055V4.47309L6.53409 4.70964V5.41873H5.43719L4.46254 4.23711L3.97465 4.47311L4.46254 5.41875H3.97465C3.43648 5.41875 3 5.84143 3 6.36439V7.30948C3 8.61464 4.09004 9.67273 5.43717 9.67273H8.36224C9.70994 9.67273 10.8 8.61464 10.8 7.30948V6.36439C10.8 5.84143 10.363 5.41875 9.82478 5.41875ZM5.55885 7.782C5.22178 7.782 4.94984 7.51775 4.94984 7.1909C4.94984 6.86405 5.22178 6.5998 5.55885 6.5998C5.89593 6.5998 6.16844 6.86405 6.16844 7.1909C6.16844 7.5183 5.8965 7.782 5.55885 7.782ZM8.24056 7.782C7.90349 7.782 7.63155 7.51775 7.63155 7.1909C7.63155 6.86405 7.90349 6.5998 8.24056 6.5998C8.57763 6.5998 8.85015 6.86405 8.85015 7.1909C8.85015 7.5183 8.57763 7.782 8.24056 7.782Z" fill="white"/>
</g>
</svg>
