<svg width="16" height="16" viewBox="0 0 16 16" fill="none" xmlns="http://www.w3.org/2000/svg">
<g clipPath="url(#clip0_446_511)">
<path d="M7.99998 4.16668C8.27612 4.16668 8.49998 4.39053 8.49998 4.66668V8.66668C8.49998 8.94282 8.27612 9.16668 7.99998 9.16668C7.72384 9.16668 7.49998 8.94282 7.49998 8.66668V4.66668C7.49998 4.39053 7.72384 4.16668 7.99998 4.16668Z" fill="#ED0A34"/>
<path d="M7.99998 11.3333C8.36817 11.3333 8.66665 11.0349 8.66665 10.6667C8.66665 10.2985 8.36817 10 7.99998 10C7.63179 10 7.33331 10.2985 7.33331 10.6667C7.33331 11.0349 7.63179 11.3333 7.99998 11.3333Z" fill="#ED0A34"/>
<path fill-rule="evenodd" clip-rule="evenodd" d="M0.833313 8.00001C0.833313 4.04197 4.04194 0.833344 7.99998 0.833344C11.958 0.833344 15.1666 4.04197 15.1666 8.00001C15.1666 11.9581 11.958 15.1667 7.99998 15.1667C4.04194 15.1667 0.833313 11.9581 0.833313 8.00001ZM7.99998 1.83334C4.59422 1.83334 1.83331 4.59425 1.83331 8.00001C1.83331 11.4058 4.59422 14.1667 7.99998 14.1667C11.4057 14.1667 14.1666 11.4058 14.1666 8.00001C14.1666 4.59425 11.4057 1.83334 7.99998 1.83334Z" fill="#ED0A34"/>
</g>
<defs>
<clipPath id="clip0_446_511">
<rect width="16" height="16" fill="white"/>
</clipPath>
</defs>
</svg>
