<svg
      width="41"
      height="39"
      viewBox="0 0 41 39"
      fill="none"
      xmlns="http://www.w3.org/2000/svg"
    >
      <path
        d="M39.2207 18.1058L31.2929 25.0245L33.6678 35.3253C33.7934 35.8638 33.7576 36.4274 33.5647 36.9456C33.3718 37.4638 33.0304 37.9137 32.5832 38.2389C32.136 38.5642 31.6029 38.7504 31.0504 38.7743C30.498 38.7982 29.9507 38.6587 29.4771 38.3733L20.4929 32.9241L11.5281 38.3733C11.0545 38.6587 10.5073 38.7982 9.95481 38.7743C9.40237 38.7504 8.86922 38.5642 8.42204 38.2389C7.97485 37.9137 7.63347 37.4638 7.44057 36.9456C7.24767 36.4274 7.21181 35.8638 7.33748 35.3253L9.70877 25.035L1.77927 18.1058C1.35988 17.744 1.05661 17.2665 0.907498 16.7332C0.75839 16.1998 0.770079 15.6342 0.941101 15.1075C1.11212 14.5807 1.43486 14.1161 1.86885 13.7721C2.30284 13.428 2.82875 13.2197 3.38064 13.1733L13.8326 12.2681L17.9125 2.53681C18.1255 2.02619 18.4849 1.59003 18.9453 1.28324C19.4058 0.976446 19.9467 0.812744 20.5 0.812744C21.0533 0.812744 21.5942 0.976446 22.0546 1.28324C22.5151 1.59003 22.8744 2.02619 23.0875 2.53681L27.1797 12.2681L37.6281 13.1733C38.18 13.2197 38.7059 13.428 39.1399 13.7721C39.5739 14.1161 39.8966 14.5807 40.0676 15.1075C40.2387 15.6342 40.2504 16.1998 40.1012 16.7332C39.9521 17.2665 39.6489 17.744 39.2295 18.1058H39.2207Z"
        fill="black"
      />
    </svg>