<svg width="20" height="20" viewBox="0 0 20 20" fill="none" xmlns="http://www.w3.org/2000/svg">
<path d="M8.35891 7.47455C8.11483 7.23047 7.7191 7.23047 7.47503 7.47455C7.23095 7.71863 7.23095 8.11436 7.47503 8.35843L9.11643 9.99983L7.47504 11.6412C7.23097 11.8853 7.23097 12.281 7.47504 12.5251C7.71912 12.7692 8.11485 12.7692 8.35893 12.5251L10.0003 10.8837L11.6417 12.5251C11.8858 12.7692 12.2815 12.7692 12.5256 12.5251C12.7696 12.281 12.7696 11.8853 12.5256 11.6412L10.8842 9.99983L12.5256 8.35845C12.7697 8.11437 12.7697 7.71864 12.5256 7.47457C12.2815 7.23049 11.8858 7.23049 11.6417 7.47457L10.0003 9.11595L8.35891 7.47455Z" fill="#8E8E8E"/>
<path fill-rule="evenodd" clip-rule="evenodd" d="M10.0003 1.0415C5.05277 1.0415 1.04199 5.05229 1.04199 9.99984C1.04199 14.9474 5.05277 18.9582 10.0003 18.9582C14.9479 18.9582 18.9587 14.9474 18.9587 9.99984C18.9587 5.05229 14.9479 1.0415 10.0003 1.0415ZM2.29199 9.99984C2.29199 5.74264 5.74313 2.2915 10.0003 2.2915C14.2575 2.2915 17.7087 5.74264 17.7087 9.99984C17.7087 14.257 14.2575 17.7082 10.0003 17.7082C5.74313 17.7082 2.29199 14.257 2.29199 9.99984Z" fill="#8E8E8E"/>
</svg>
