<svg xmlns="http://www.w3.org/2000/svg" width="16" height="16" viewBox="0 0 16 16" fill="none">
  <path fill-rule="evenodd" clip-rule="evenodd" d="M10 0.833008H7.29572C6.07055 0.832998 5.10013 0.832989 4.34065 0.935098C3.55904 1.04018 2.9264 1.26159 2.4275 1.7605C1.92859 2.25941 1.70718 2.89205 1.60209 3.67366C1.49998 4.43313 1.49999 5.40355 1.5 6.62872V10.6663C1.5 11.9145 2.4147 12.949 3.61034 13.1362C3.70232 13.6455 3.87835 14.0802 4.23223 14.4341C4.63351 14.8354 5.13876 15.008 5.73883 15.0887C6.31681 15.1664 7.05169 15.1664 7.96342 15.1663H10.0366C10.9483 15.1664 11.6832 15.1664 12.2612 15.0887C12.8612 15.008 13.3665 14.8354 13.7678 14.4341C14.169 14.0328 14.3416 13.5276 14.4223 12.9275C14.5 12.3495 14.5 11.6146 14.5 10.7029V7.29643C14.5 6.3847 14.5 5.64982 14.4223 5.07184C14.3416 4.47177 14.169 3.96652 13.7678 3.56524C13.4139 3.21136 12.9791 3.03533 12.4698 2.94335C12.2827 1.74771 11.2482 0.833008 10 0.833008ZM11.4196 2.84712C11.2177 2.25716 10.6584 1.83301 10 1.83301H7.33333C6.06212 1.83301 5.15901 1.83407 4.4739 1.92618C3.80317 2.01636 3.41674 2.18547 3.1346 2.46761C2.85246 2.74975 2.68335 3.13618 2.59317 3.80691C2.50106 4.49202 2.5 5.39513 2.5 6.66634V10.6663C2.5 11.3247 2.92416 11.884 3.51411 12.0859C3.49999 11.6793 3.49999 11.2195 3.5 10.7029V7.29642C3.49999 6.3847 3.49998 5.64982 3.57768 5.07184C3.65836 4.47177 3.83096 3.96652 4.23223 3.56524C4.63351 3.16396 5.13876 2.99137 5.73883 2.91069C6.31681 2.83298 7.05169 2.83299 7.96342 2.83301H10.0366C10.5531 2.833 11.0129 2.83299 11.4196 2.84712ZM4.93934 4.27235C5.12385 4.08784 5.3829 3.96754 5.87208 3.90177C6.37565 3.83407 7.04306 3.83301 8 3.83301H10C10.9569 3.83301 11.6244 3.83407 12.1279 3.90177C12.6171 3.96754 12.8762 4.08784 13.0607 4.27235C13.2452 4.45686 13.3655 4.71591 13.4312 5.20509C13.4989 5.70866 13.5 6.37606 13.5 7.33301V10.6663C13.5 11.6233 13.4989 12.2907 13.4312 12.7943C13.3655 13.2834 13.2452 13.5425 13.0607 13.727C12.8762 13.9115 12.6171 14.0318 12.1279 14.0976C11.6244 14.1653 10.9569 14.1663 10 14.1663H8C7.04306 14.1663 6.37565 14.1653 5.87208 14.0976C5.3829 14.0318 5.12385 13.9115 4.93934 13.727C4.75483 13.5425 4.63453 13.2834 4.56877 12.7943C4.50106 12.2907 4.5 11.6233 4.5 10.6663V7.33301C4.5 6.37606 4.50106 5.70866 4.56877 5.20509C4.63453 4.71591 4.75483 4.45686 4.93934 4.27235Z" fill="#8E8E8E"/>
</svg>