<svg width="16" height="16" viewBox="0 0 16 16" fill="none" xmlns="http://www.w3.org/2000/svg">
<g clip-path="url(#clip0_446_51)">
<path d="M6.68686 5.97978C6.4916 5.78452 6.17502 5.78452 5.97975 5.97978C5.78449 6.17504 5.78449 6.49162 5.97975 6.68689L7.29287 8.00001L5.97977 9.31311C5.78451 9.50838 5.78451 9.82496 5.97977 10.0202C6.17503 10.2155 6.49161 10.2155 6.68688 10.0202L7.99998 8.70711L9.31307 10.0202C9.50834 10.2155 9.82492 10.2155 10.0202 10.0202C10.2154 9.82495 10.2154 9.50836 10.0202 9.3131L8.70709 8.00001L10.0202 6.6869C10.2155 6.49164 10.2155 6.17506 10.0202 5.97979C9.82493 5.78453 9.50835 5.78453 9.31309 5.97979L7.99998 7.2929L6.68686 5.97978Z" fill="#8E8E8E"/>
<path fill-rule="evenodd" clip-rule="evenodd" d="M8 0.833344C4.04195 0.833344 0.833328 4.04197 0.833328 8.00001C0.833328 11.9581 4.04195 15.1667 8 15.1667C11.958 15.1667 15.1667 11.9581 15.1667 8.00001C15.1667 4.04197 11.958 0.833344 8 0.833344ZM1.83333 8.00001C1.83333 4.59425 4.59424 1.83334 8 1.83334C11.4058 1.83334 14.1667 4.59425 14.1667 8.00001C14.1667 11.4058 11.4058 14.1667 8 14.1667C4.59424 14.1667 1.83333 11.4058 1.83333 8.00001Z" fill="#8E8E8E"/>
</g>
<defs>
<clipPath id="clip0_446_51">
<rect width="16" height="16" fill="white"/>
</clipPath>
</defs>
</svg>
