<svg width="20" height="20" viewBox="0 0 20 20" fill="none" xmlns="http://www.w3.org/2000/svg">
<g id="vuesax/bold/dislike">
<g id="dislike">
<path id="Vector" d="M13.0082 4.58327V13.0499C13.0082 13.3833 12.9082 13.7083 12.7249 13.9833L10.4499 17.3666C10.0915 17.9083 9.19985 18.2916 8.44152 18.0083C7.62485 17.7333 7.08318 16.8166 7.25818 15.9999L7.69152 13.2749C7.72485 13.0249 7.65818 12.7999 7.51652 12.6249C7.37485 12.4666 7.16652 12.3666 6.94152 12.3666H3.51652C2.85818 12.3666 2.29152 12.0999 1.95818 11.6333C1.64152 11.1833 1.58318 10.5999 1.79152 10.0083L3.84152 3.7666C4.09985 2.73327 5.22485 1.8916 6.34152 1.8916H9.59152C10.1499 1.8916 10.9332 2.08327 11.2915 2.4416L12.3582 3.2666C12.7665 3.58327 13.0082 4.0666 13.0082 4.58327Z" fill="#ED0A34"/>
<path id="Vector_2" d="M15.6585 14.6749H16.5168C17.8085 14.6749 18.3335 14.1749 18.3335 12.9416V4.56659C18.3335 3.33325 17.8085 2.83325 16.5168 2.83325H15.6585C14.3668 2.83325 13.8418 3.33325 13.8418 4.56659V12.9499C13.8418 14.1749 14.3668 14.6749 15.6585 14.6749Z" fill="#ED0A34"/>
</g>
</g>
</svg>
