<svg
      width="53"
      height="53"
      viewBox="0 0 53 53"
      fill="none"
      xmlns="http://www.w3.org/2000/svg"
    >
      <g clipPath="url(#clip0_12292_10083)">
        <path
          d="M23.7369 15.0057C30.5533 15.0057 30.6062 15.2885 31.4503 15.9241C31.898 16.2609 32.7429 16.4945 35.8291 16.6955C36.0534 16.7101 36.266 16.796 36.4089 16.9692C36.4745 17.0491 38.0165 19.298 38.0165 22.8995C38.0165 26.4488 36.9129 28.067 36.8656 28.1423C36.7982 28.2501 36.7045 28.339 36.5933 28.4005C36.4821 28.4621 36.3571 28.4945 36.23 28.4945C33.6961 28.4945 30.1835 31.7288 27.8218 37.3752C27.4134 38.3517 27.3294 38.9937 25.829 38.9937C24.9759 38.9937 24.0196 38.3828 23.5468 37.5991C22.5785 35.9978 23.0701 32.5587 23.5254 30.7208C21.9785 30.7332 19.1784 30.7545 17.846 30.7545C15.9928 30.7545 14.7665 29.6494 14.7286 28.0335C14.7166 27.5003 14.7864 26.8189 14.9409 26.4671C14.5333 26.0603 14.0068 25.4464 13.9839 24.6562C13.955 23.6366 14.6233 22.86 15.0493 22.4141C14.9518 22.1175 14.756 21.7241 14.7748 21.2538C14.822 20.0974 15.7145 19.3519 16.271 18.963C16.2252 18.6476 16.1892 18.0502 16.2905 17.589C16.6918 15.7462 19.3936 15.0056 23.7369 15.0056V15.0057ZM35.4309 18.2168C32.7429 17.9945 31.306 17.6933 30.5482 17.1225C29.9617 16.6812 30.0524 16.5061 23.737 16.5061C21.811 16.5061 18.0442 16.5863 17.7554 17.9082C17.6403 18.4369 18.1979 18.9571 18.2002 18.9608C18.3524 19.3369 18.1825 19.7776 17.8113 19.9399C17.8053 19.9429 16.3083 20.4796 16.2738 21.3166C16.2517 21.8517 16.6188 22.1731 16.6274 22.1862C16.8457 22.5252 16.7658 22.9905 16.4346 23.2212C16.4309 23.2242 15.4604 23.8122 15.4844 24.6143C15.5028 25.2507 16.3417 25.6992 16.3672 25.7142C16.5547 25.8214 16.6912 26.007 16.7335 26.2197C16.7759 26.4312 16.7283 26.6539 16.597 26.8253C16.597 26.8253 16.2156 27.4317 16.2291 27.9998C16.2569 29.217 17.5656 29.2553 17.8465 29.2553C19.7384 29.2553 24.5972 29.2354 24.5972 29.2354C24.8593 29.2347 25.0862 29.3584 25.2268 29.568C25.3675 29.7777 25.3783 30.0383 25.2955 30.2764C24.5631 32.3866 24.154 35.6971 24.8335 36.8281C25.0333 37.1614 25.0795 37.4944 25.8295 37.4944C25.9333 37.4944 26.1808 37.4123 26.4388 36.7973C28.9464 30.8018 32.6897 27.333 35.7557 27.0203C36.0201 26.4173 36.5173 25.1678 36.5173 22.9002C36.5166 20.5861 35.7835 18.7962 35.4309 18.2168Z"
          fill="black"
        />
      </g>
      <circle cx="26.5" cy="26.5" r="25.75" stroke="black" stroke-width="1.5" />
      <defs>
        <clipPath id="clip0_12292_10083">
          <rect
            width="24"
            height="24"
            fill="white"
            transform="translate(14 15)"
          />
        </clipPath>
      </defs>
    </svg>