<svg width="16" height="16" viewBox="0 0 16 16" fill="none" xmlns="http://www.w3.org/2000/svg">
<path fill-rule="evenodd" clip-rule="evenodd" d="M8 0.833344C6.2511 0.833344 4.83334 2.25111 4.83334 4.00001C4.83334 5.74891 6.2511 7.16668 8 7.16668C9.7489 7.16668 11.1667 5.74891 11.1667 4.00001C11.1667 2.25111 9.7489 0.833344 8 0.833344ZM5.83334 4.00001C5.83334 2.80339 6.80339 1.83334 8 1.83334C9.19662 1.83334 10.1667 2.80339 10.1667 4.00001C10.1667 5.19663 9.19662 6.16668 8 6.16668C6.80339 6.16668 5.83334 5.19663 5.83334 4.00001Z" fill="#8E8E8E"/>
<path fill-rule="evenodd" clip-rule="evenodd" d="M8 8.16668C6.45764 8.16668 5.03662 8.51727 3.98364 9.10957C2.94632 9.69306 2.16667 10.5774 2.16667 11.6667L2.16663 11.7346C2.16587 12.5092 2.16493 13.4813 3.01761 14.1757C3.43726 14.5174 4.02432 14.7604 4.81748 14.921C5.61284 15.082 6.64949 15.1667 8 15.1667C9.35052 15.1667 10.3872 15.082 11.1825 14.921C11.9757 14.7604 12.5627 14.5174 12.9824 14.1757C13.8351 13.4813 13.8341 12.5092 13.8334 11.7346L13.8333 11.6667C13.8333 10.5774 13.0537 9.69306 12.0164 9.10957C10.9634 8.51727 9.54237 8.16668 8 8.16668ZM3.16667 11.6667C3.16667 11.0991 3.58092 10.4834 4.4739 9.98114C5.3512 9.48766 6.59685 9.16668 8 9.16668C9.40315 9.16668 10.6488 9.48766 11.5261 9.98114C12.4191 10.4834 12.8333 11.0991 12.8333 11.6667C12.8333 12.5385 12.8065 13.0293 12.3509 13.4003C12.1039 13.6014 11.691 13.7978 10.9841 13.9409C10.2795 14.0835 9.31615 14.1667 8 14.1667C6.68385 14.1667 5.7205 14.0835 5.01586 13.9409C4.30902 13.7978 3.89608 13.6014 3.64906 13.4003C3.19355 13.0293 3.16667 12.5385 3.16667 11.6667Z" fill="#8E8E8E"/>
</svg>
