<svg width="16" height="16" viewBox="0 0 16 16" fill="none" xmlns="http://www.w3.org/2000/svg">
<path fill-rule="evenodd" clip-rule="evenodd" d="M6.62904 2.16669H9.37092C10.5961 2.16668 11.5665 2.16667 12.326 2.26878C13.1076 2.37386 13.7402 2.59527 14.2392 3.09418C14.7381 3.59309 14.9595 4.22572 15.0646 5.00734C15.1667 5.76682 15.1667 6.73724 15.1666 7.96241V8.03763C15.1667 9.2628 15.1667 10.2332 15.0646 10.9927C14.9595 11.7743 14.7381 12.4069 14.2392 12.9059C13.7402 13.4048 13.1076 13.6262 12.326 13.7313C11.5665 13.8334 10.5961 13.8334 9.37092 13.8334H6.62904C5.40386 13.8334 4.43344 13.8334 3.67396 13.7313C2.89235 13.6262 2.25972 13.4048 1.76081 12.9059C1.2619 12.4069 1.04049 11.7743 0.935403 10.9927C0.833294 10.2332 0.833303 9.26281 0.833313 8.03763V7.96241C0.833303 6.73724 0.833294 5.76681 0.935403 5.00734C1.04049 4.22572 1.2619 3.59309 1.76081 3.09418C2.25972 2.59527 2.89235 2.37386 3.67396 2.26878C4.43344 2.16667 5.40386 2.16668 6.62904 2.16669ZM3.80721 3.25986C3.13649 3.35004 2.75006 3.51915 2.46792 3.80129C2.18578 4.08343 2.01666 4.46986 1.92649 5.14059C1.83438 5.8257 1.83331 6.72881 1.83331 8.00002C1.83331 9.27123 1.83438 10.1743 1.92649 10.8595C2.01666 11.5302 2.18578 11.9166 2.46792 12.1988C2.75006 12.4809 3.13649 12.65 3.80721 12.7402C4.49232 12.8323 5.39543 12.8334 6.66665 12.8334H9.33331C10.6045 12.8334 11.5076 12.8323 12.1927 12.7402C12.8635 12.65 13.2499 12.4809 13.532 12.1988C13.8142 11.9166 13.9833 11.5302 14.0735 10.8595C14.1656 10.1743 14.1666 9.27123 14.1666 8.00002C14.1666 6.72881 14.1656 5.8257 14.0735 5.14059C13.9833 4.46986 13.8142 4.08343 13.532 3.80129C13.2499 3.51915 12.8635 3.35004 12.1927 3.25986C11.5076 3.16775 10.6045 3.16669 9.33331 3.16669H6.66665C5.39543 3.16669 4.49232 3.16775 3.80721 3.25986ZM3.61587 5.01326C3.79265 4.80112 4.10793 4.77246 4.32007 4.94924L5.75934 6.14863C6.38131 6.66694 6.81313 7.02563 7.1777 7.26011C7.53061 7.48708 7.76993 7.56327 7.99998 7.56327C8.23003 7.56327 8.46935 7.48708 8.82226 7.26011C9.18683 7.02563 9.61865 6.66694 10.2406 6.14863L11.6799 4.94924C11.892 4.77246 12.2073 4.80112 12.3841 5.01326C12.5609 5.2254 12.5322 5.54068 12.3201 5.71746L10.8557 6.93774C10.2648 7.43017 9.7859 7.8293 9.3632 8.10117C8.92286 8.38437 8.49403 8.56327 7.99998 8.56327C7.50593 8.56327 7.0771 8.38437 6.63677 8.10117C6.21406 7.8293 5.73512 7.43018 5.14422 6.93774L3.67989 5.71746C3.46775 5.54068 3.43909 5.2254 3.61587 5.01326Z" fill="#B9B9B9"/>
</svg>
