<svg width="16" height="16" viewBox="0 0 16 16" fill="none" xmlns="http://www.w3.org/2000/svg">
<path fill-rule="evenodd" clip-rule="evenodd" d="M6.62897 2.16663H9.37086C10.596 2.16662 11.5665 2.16661 12.3259 2.26872C13.1075 2.3738 13.7402 2.59521 14.2391 3.09412C14.738 3.59303 14.9594 4.22566 15.0645 5.00728C15.1666 5.76675 15.1666 6.73718 15.1666 7.96235V8.03757C15.1666 9.26274 15.1666 10.2332 15.0645 10.9926C14.9594 11.7743 14.738 12.4069 14.2391 12.9058C13.7402 13.4047 13.1075 13.6261 12.3259 13.7312C11.5665 13.8333 10.596 13.8333 9.37086 13.8333H6.62898C5.4038 13.8333 4.43338 13.8333 3.6739 13.7312C2.89229 13.6261 2.25966 13.4047 1.76075 12.9058C1.26184 12.4069 1.04043 11.7743 0.935342 10.9926C0.833233 10.2332 0.833242 9.26274 0.833252 8.03757V7.96235C0.833242 6.73718 0.833233 5.76675 0.935342 5.00728C1.04043 4.22566 1.26184 3.59303 1.76075 3.09412C2.25966 2.59521 2.89229 2.3738 3.6739 2.26872C4.43338 2.16661 5.4038 2.16662 6.62897 2.16663ZM3.80715 3.2598C3.13643 3.34998 2.74999 3.51909 2.46785 3.80123C2.18571 4.08337 2.0166 4.4698 1.92642 5.14053C1.83431 5.82564 1.83325 6.72875 1.83325 7.99996C1.83325 9.27117 1.83431 10.1743 1.92642 10.8594C2.0166 11.5301 2.18571 11.9166 2.46785 12.1987C2.74999 12.4808 3.13643 12.6499 3.80715 12.7401C4.49226 12.8322 5.39537 12.8333 6.66659 12.8333H9.33325C10.6045 12.8333 11.5076 12.8322 12.1927 12.7401C12.8634 12.6499 13.2498 12.4808 13.532 12.1987C13.8141 11.9166 13.9832 11.5301 14.0734 10.8594C14.1655 10.1743 14.1666 9.27117 14.1666 7.99996C14.1666 6.72875 14.1655 5.82564 14.0734 5.14053C13.9832 4.4698 13.8141 4.08337 13.532 3.80123C13.2498 3.51909 12.8634 3.34998 12.1927 3.2598C11.5076 3.16769 10.6045 3.16663 9.33325 3.16663H6.66659C5.39537 3.16663 4.49226 3.16769 3.80715 3.2598ZM3.61581 5.0132C3.79259 4.80106 4.10787 4.7724 4.32001 4.94918L5.75928 6.14857C6.38125 6.66688 6.81307 7.02557 7.17764 7.26005C7.53055 7.48702 7.76987 7.56321 7.99992 7.56321C8.22997 7.56321 8.46929 7.48702 8.8222 7.26005C9.18677 7.02557 9.61859 6.66688 10.2406 6.14857L11.6798 4.94918C11.892 4.7724 12.2072 4.80106 12.384 5.0132C12.5608 5.22534 12.5321 5.54062 12.32 5.7174L10.8557 6.93768C10.2648 7.43011 9.78584 7.82924 9.36313 8.10111C8.9228 8.38431 8.49397 8.56321 7.99992 8.56321C7.50587 8.56321 7.07704 8.38431 6.6367 8.10111C6.214 7.82924 5.73506 7.43012 5.14416 6.93768L3.67983 5.7174C3.46769 5.54062 3.43903 5.22534 3.61581 5.0132Z" fill="#8E8E8E"/>
</svg>