<svg xmlns="http://www.w3.org/2000/svg" width="20" height="20" viewBox="0 0 20 20" fill="none">
    <g clip-path="url(#clip0_4720_4218)">
      <path d="M10 19.5833C15.2927 19.5833 19.5834 15.2927 19.5834 10C19.5834 4.70727 15.2927 0.416664 10 0.416664C4.70729 0.416664 0.416687 4.70727 0.416687 10C0.416687 15.2927 4.70729 19.5833 10 19.5833Z" fill="#FFCE52"/>
      <path d="M8.75002 15.0058L7.91669 15C7.91669 13.6842 10.7979 13.3333 12.5 13.3333V14.1667C10.0588 14.1667 8.81127 14.7746 8.75002 15.0058Z" fill="#273941"/>
      <path d="M16.3084 6.63333C16.2909 6.6025 16.2692 6.57417 16.25 6.54417V7.08333C16.25 7.30435 16.1622 7.51631 16.0059 7.67259C15.8497 7.82887 15.6377 7.91667 15.4167 7.91667C15.1957 7.91667 14.9837 7.82887 14.8274 7.67259C14.6712 7.51631 14.5834 7.30435 14.5834 7.08333V6.25H12.3084C11.8942 6.70614 11.6653 7.30055 11.6667 7.91667C11.6667 8.57971 11.9301 9.21559 12.3989 9.68443C12.8678 10.1533 13.5037 10.4167 14.1667 10.4167C14.8297 10.4167 15.4656 10.1533 15.9345 9.68443C16.4033 9.21559 16.6667 8.57971 16.6667 7.91667C16.6683 7.46397 16.5442 7.01971 16.3084 6.63333Z" fill="#F6FAFD"/>
      <path d="M15.4167 7.91667C15.6377 7.91667 15.8497 7.82887 16.006 7.67259C16.1622 7.51631 16.25 7.30435 16.25 7.08333V6.54417C16.1837 6.43979 16.1084 6.34137 16.025 6.25H14.5834V7.08333C14.5834 7.30435 14.6712 7.51631 14.8275 7.67259C14.9837 7.82887 15.1957 7.91667 15.4167 7.91667Z" fill="#141E21"/>
      <path d="M7.97505 6.63333C7.95755 6.6025 7.93588 6.57417 7.91671 6.54417V7.08333C7.91671 7.30435 7.82892 7.51631 7.67264 7.67259C7.51636 7.82887 7.30439 7.91667 7.08338 7.91667C6.86237 7.91667 6.6504 7.82887 6.49412 7.67259C6.33784 7.51631 6.25005 7.30435 6.25005 7.08333V6.25H3.97505C3.56087 6.70614 3.33203 7.30055 3.33338 7.91667C3.33338 8.57971 3.59677 9.21559 4.06561 9.68443C4.53445 10.1533 5.17034 10.4167 5.83338 10.4167C6.49642 10.4167 7.13231 10.1533 7.60115 9.68443C8.06999 9.21559 8.33338 8.57971 8.33338 7.91667C8.33498 7.46397 8.21093 7.01971 7.97505 6.63333Z" fill="#F6FAFD"/>
      <path d="M7.08333 7.91667C7.30435 7.91667 7.51631 7.82887 7.67259 7.67259C7.82887 7.51631 7.91667 7.30435 7.91667 7.08333V6.54417C7.85031 6.43979 7.77503 6.34137 7.69167 6.25H6.25V7.08333C6.25 7.30435 6.3378 7.51631 6.49408 7.67259C6.65036 7.82887 6.86232 7.91667 7.08333 7.91667Z" fill="#141E21"/>
      <path d="M10 1.66666C15.0625 1.66666 19.1667 5.21125 19.1667 9.58333H19.573C19.4581 7.12169 18.3993 4.7989 16.6167 3.09746C14.834 1.39602 12.4644 0.446701 10 0.446701C7.53572 0.446701 5.16611 1.39602 3.38342 3.09746C1.60073 4.7989 0.541992 7.12169 0.427124 9.58333H0.833374C0.833374 5.21125 4.93754 1.66666 10 1.66666Z" fill="#FFE369"/>
      <path d="M19.1667 9.58333C19.1667 13.9554 15.0625 17.5 10 17.5C4.93752 17.5 0.833354 13.9554 0.833354 9.58333H0.427104C0.42127 9.72166 0.416687 9.86041 0.416687 9.99999C0.416687 12.5417 1.42636 14.9792 3.22358 16.7764C5.0208 18.5737 7.45836 19.5833 10 19.5833C12.5417 19.5833 14.9792 18.5737 16.7765 16.7764C18.5737 14.9792 19.5834 12.5417 19.5834 9.99999C19.5834 9.86041 19.5788 9.72166 19.5729 9.58333H19.1667Z" fill="#FFB32B"/>
      <path d="M15.5467 3.87978C15.6809 3.74549 15.6382 3.48525 15.4513 3.29851C15.2645 3.11177 15.0042 3.06926 14.87 3.20355C14.7358 3.33784 14.7785 3.59808 14.9654 3.78482C15.1522 3.97155 15.4125 4.01407 15.5467 3.87978Z" fill="#F6FAFD"/>
      <path d="M12.7717 1.83572C12.8389 1.7685 12.8176 1.63831 12.7242 1.54494C12.6307 1.45157 12.5005 1.43038 12.4333 1.49761C12.3662 1.56483 12.3874 1.69502 12.4809 1.78839C12.5743 1.88176 12.7045 1.90295 12.7717 1.83572Z" fill="#F6FAFD"/>
      <path d="M14.6354 3.38485C14.9038 3.11628 14.8182 2.59566 14.4443 2.22202C14.0704 1.84839 13.5498 1.76323 13.2814 2.03181C13.013 2.30039 13.0985 2.821 13.4724 3.19464C13.8463 3.56827 14.367 3.65343 14.6354 3.38485Z" fill="#F6FAFD"/>
      <path d="M14.1667 10.4167C13.5774 10.4161 13.0072 10.2074 12.5568 9.82737C12.1064 9.44733 11.8047 8.9204 11.705 8.33958C11.6418 8.69919 11.6581 9.06829 11.7528 9.42093C11.8475 9.77356 12.0182 10.1012 12.2531 10.3807C12.488 10.6603 12.7812 10.885 13.1122 11.0391C13.4433 11.1932 13.804 11.2729 14.1692 11.2726C14.5343 11.2724 14.8949 11.1921 15.2257 11.0375C15.5565 10.8829 15.8494 10.6578 16.0839 10.3778C16.3183 10.0979 16.4886 9.77003 16.5827 9.41725C16.6769 9.06446 16.6926 8.69534 16.6288 8.33583C16.5299 8.91741 16.2285 9.44527 15.7779 9.82607C15.3274 10.2069 14.7566 10.4161 14.1667 10.4167ZM5.83338 10.4167C5.24406 10.4161 4.67389 10.2074 4.22348 9.82737C3.77308 9.44733 3.47141 8.9204 3.37171 8.33958C3.30846 8.69919 3.32475 9.06829 3.41944 9.42093C3.51412 9.77356 3.6849 10.1012 3.91977 10.3807C4.15463 10.6603 4.44789 10.885 4.77891 11.0391C5.10994 11.1932 5.47069 11.2729 5.83582 11.2726C6.20095 11.2724 6.56159 11.1921 6.89238 11.0375C7.22317 10.8829 7.51608 10.6578 7.75052 10.3778C7.98496 10.0979 8.15524 9.77003 8.24939 9.41725C8.34353 9.06446 8.35926 8.69534 8.29546 8.33583C8.19655 8.91741 7.89516 9.44527 7.44459 9.82607C6.99403 10.2069 6.42331 10.4161 5.83338 10.4167ZM14.5834 6.24999H16.025C16.1084 6.34136 16.1837 6.43978 16.25 6.54416C16.2692 6.57416 16.2917 6.60249 16.3084 6.63333C16.5111 6.96888 16.6298 7.34835 16.6546 7.73958C16.6621 7.66083 16.6667 7.58083 16.6667 7.49999C16.6683 7.0473 16.5443 6.60304 16.3084 6.21666C16.2909 6.18583 16.2692 6.1575 16.25 6.1275C16.1837 6.02312 16.1084 5.92469 16.025 5.83333H12.3084C11.8942 6.28947 11.6654 6.88388 11.6667 7.49999C11.6668 7.58824 11.6715 7.67642 11.6809 7.76416C11.7116 7.20272 11.9329 6.66856 12.3084 6.24999H14.5834ZM6.25005 6.24999H7.69171C7.77508 6.34136 7.85036 6.43978 7.91671 6.54416C7.93588 6.57416 7.95838 6.60249 7.97505 6.63333C8.17773 6.96888 8.2965 7.34835 8.3213 7.73958C8.3288 7.66083 8.33338 7.58083 8.33338 7.49999C8.33498 7.0473 8.21093 6.60304 7.97505 6.21666C7.95755 6.18583 7.93588 6.1575 7.91671 6.1275C7.85036 6.02312 7.77508 5.92469 7.69171 5.83333H3.97505C3.56087 6.28947 3.33203 6.88388 3.33338 7.49999C3.33346 7.58824 3.33819 7.67642 3.34755 7.76416C3.37824 7.20272 3.59961 6.66856 3.97505 6.24999H6.25005Z" fill="#FBB40A"/>
    </g>
    <defs>
      <clipPath id="clip0_4720_4218">
        <rect width="20" height="20" fill="white"/>
      </clipPath>
    </defs>
  </svg>