<svg xmlns="http://www.w3.org/2000/svg" width="20" height="20" viewBox="0 0 20 20" fill="none">
    <g clip-path="url(#clip0_4720_4268)">
      <path d="M10 19.5833C15.2927 19.5833 19.5834 15.2927 19.5834 10C19.5834 4.70727 15.2927 0.416664 10 0.416664C4.70729 0.416664 0.416687 4.70727 0.416687 10C0.416687 15.2927 4.70729 19.5833 10 19.5833Z" fill="#FFCE52"/>
      <path d="M2.91669 10.8333C2.91669 12.2167 6.08335 13.75 10 13.75C13.9167 13.75 17.0834 12.2167 17.0834 10.8333C17.0755 11.6896 16.8588 12.5311 16.4522 13.2848C16.0456 14.0384 15.4614 14.6815 14.75 15.1583C13.3605 16.1398 11.7012 16.6667 10 16.6667C8.29888 16.6667 6.63951 16.1398 5.25002 15.1583C4.53869 14.6815 3.95439 14.0384 3.54779 13.2848C3.14119 12.5311 2.92456 11.6896 2.91669 10.8333Z" fill="#AE2D4C"/>
      <path d="M17.0834 10.8333C17.0834 12.2167 13.9167 13.75 10 13.75C6.08335 13.75 2.91669 12.2167 2.91669 10.8333C3.33335 11.25 6.25002 11.6667 10 11.6667C13.75 11.6667 16.6667 11.25 17.0834 10.8333Z" fill="#F6FAFD"/>
      <path d="M13.75 9.16667C14.4404 9.16667 15 8.42048 15 7.5C15 6.57953 14.4404 5.83334 13.75 5.83334C13.0596 5.83334 12.5 6.57953 12.5 7.5C12.5 8.42048 13.0596 9.16667 13.75 9.16667Z" fill="#273941"/>
      <path d="M6.25 9.16667C6.94036 9.16667 7.5 8.42048 7.5 7.5C7.5 6.57953 6.94036 5.83334 6.25 5.83334C5.55964 5.83334 5 6.57953 5 7.5C5 8.42048 5.55964 9.16667 6.25 9.16667Z" fill="#273941"/>
      <path d="M13.75 8.75C14.2103 8.75 14.5834 8.19036 14.5834 7.5C14.5834 6.80964 14.2103 6.25 13.75 6.25C13.2898 6.25 12.9167 6.80964 12.9167 7.5C12.9167 8.19036 13.2898 8.75 13.75 8.75Z" fill="#141E21"/>
      <path d="M6.25002 8.75C6.71026 8.75 7.08335 8.19036 7.08335 7.5C7.08335 6.80964 6.71026 6.25 6.25002 6.25C5.78978 6.25 5.41669 6.80964 5.41669 7.5C5.41669 8.19036 5.78978 8.75 6.25002 8.75Z" fill="#141E21"/>
      <path d="M14.1667 7.5C14.3968 7.5 14.5833 7.31345 14.5833 7.08333C14.5833 6.85321 14.3968 6.66666 14.1667 6.66666C13.9365 6.66666 13.75 6.85321 13.75 7.08333C13.75 7.31345 13.9365 7.5 14.1667 7.5Z" fill="#F6FAFD"/>
      <path d="M6.66667 7.5C6.89679 7.5 7.08333 7.31345 7.08333 7.08333C7.08333 6.85321 6.89679 6.66666 6.66667 6.66666C6.43655 6.66666 6.25 6.85321 6.25 7.08333C6.25 7.31345 6.43655 7.5 6.66667 7.5Z" fill="#F6FAFD"/>
      <path d="M10 14.5833C13.3175 14.5833 16.0888 13.4829 16.8617 12.3058C17.0081 11.8287 17.0828 11.3324 17.0834 10.8333C17.0834 12.2167 13.9167 13.75 10 13.75C6.08335 13.75 2.91669 12.2167 2.91669 10.8333C2.91722 11.3324 2.99192 11.8287 3.13835 12.3058C3.91127 13.4829 6.68252 14.5833 10 14.5833Z" fill="#8A293D"/>
      <path d="M16.4479 11.9396C16.6252 11.8098 16.7734 11.6443 16.8828 11.4538C16.9923 11.2632 17.0606 11.0519 17.0834 10.8333C16.6667 11.25 13.75 11.6667 10 11.6667C6.25002 11.6667 3.33335 11.25 2.91669 10.8333C2.93946 11.0519 3.00776 11.2632 3.1172 11.4538C3.22665 11.6443 3.3748 11.8098 3.5521 11.9396C4.67627 12.2475 7.08335 12.5 10 12.5C12.9167 12.5 15.3238 12.2475 16.4479 11.9396Z" fill="#EDEDED"/>
      <path d="M9.99998 1.66666C15.0625 1.66666 19.1666 5.21125 19.1666 9.58333H19.5729C19.458 7.12169 18.3993 4.7989 16.6166 3.09746C14.8339 1.39602 12.4643 0.446701 9.99998 0.446701C7.53566 0.446701 5.16605 1.39602 3.38336 3.09746C1.60067 4.7989 0.541931 7.12169 0.427063 9.58333H0.833313C0.833313 5.21125 4.93748 1.66666 9.99998 1.66666Z" fill="#FFE369"/>
      <path d="M19.1667 9.58334C19.1667 13.9554 15.0625 17.5 10 17.5C4.93752 17.5 0.833354 13.9554 0.833354 9.58334H0.427104C0.42127 9.72167 0.416687 9.86042 0.416687 10C0.416687 12.5417 1.42636 14.9792 3.22358 16.7764C5.0208 18.5737 7.45836 19.5833 10 19.5833C12.5417 19.5833 14.9792 18.5737 16.7765 16.7764C18.5737 14.9792 19.5834 12.5417 19.5834 10C19.5834 9.86042 19.5788 9.72167 19.5729 9.58334H19.1667Z" fill="#FFB32B"/>
      <path d="M15.755 4.08811C15.8892 3.95382 15.8465 3.69358 15.6596 3.50685C15.4728 3.32011 15.2125 3.27759 15.0783 3.41188C14.9441 3.54617 14.9868 3.80642 15.1737 3.99315C15.3605 4.17989 15.6208 4.2224 15.755 4.08811Z" fill="#F6FAFD"/>
      <path d="M12.9799 2.04376C13.0471 1.97653 13.0258 1.84635 12.9324 1.75298C12.8389 1.65961 12.7087 1.63842 12.6415 1.70565C12.5744 1.77287 12.5956 1.90306 12.6891 1.99643C12.7825 2.08979 12.9127 2.11099 12.9799 2.04376Z" fill="#F6FAFD"/>
      <path d="M14.8437 3.59319C15.1121 3.32461 15.0265 2.80399 14.6527 2.43036C14.2788 2.05673 13.7581 1.97156 13.4897 2.24014C13.2213 2.50872 13.3068 3.02934 13.6807 3.40297C14.0546 3.77661 14.5753 3.86177 14.8437 3.59319Z" fill="#F6FAFD"/>
    </g>
    <defs>
      <clipPath id="clip0_4720_4268">
        <rect width="20" height="20" fill="white"/>
      </clipPath>
    </defs>
  </svg>