<svg xmlns="http://www.w3.org/2000/svg" width="20" height="20" viewBox="0 0 20 20" fill="none">
    <g clip-path="url(#clip0_4720_4234)">
    <path d="M10 19.5833C15.2927 19.5833 19.5834 15.2927 19.5834 10C19.5834 4.70727 15.2927 0.416664 10 0.416664C4.70729 0.416664 0.416687 4.70727 0.416687 10C0.416687 15.2927 4.70729 19.5833 10 19.5833Z" fill="#FFCE52"/>
    <path d="M13.75 9.16666C14.4404 9.16666 15 8.42047 15 7.49999C15 6.57952 14.4404 5.83333 13.75 5.83333C13.0596 5.83333 12.5 6.57952 12.5 7.49999C12.5 8.42047 13.0596 9.16666 13.75 9.16666Z" fill="#273941"/>
    <path d="M6.25 9.16666C6.94036 9.16666 7.5 8.42047 7.5 7.49999C7.5 6.57952 6.94036 5.83333 6.25 5.83333C5.55964 5.83333 5 6.57952 5 7.49999C5 8.42047 5.55964 9.16666 6.25 9.16666Z" fill="#273941"/>
    <path d="M13.75 8.75C14.2103 8.75 14.5834 8.19036 14.5834 7.5C14.5834 6.80964 14.2103 6.25 13.75 6.25C13.2898 6.25 12.9167 6.80964 12.9167 7.5C12.9167 8.19036 13.2898 8.75 13.75 8.75Z" fill="#141E21"/>
    <path d="M6.25002 8.75C6.71026 8.75 7.08335 8.19036 7.08335 7.5C7.08335 6.80964 6.71026 6.25 6.25002 6.25C5.78978 6.25 5.41669 6.80964 5.41669 7.5C5.41669 8.19036 5.78978 8.75 6.25002 8.75Z" fill="#141E21"/>
    <path d="M14.1667 7.5C14.3968 7.5 14.5833 7.31345 14.5833 7.08333C14.5833 6.85321 14.3968 6.66666 14.1667 6.66666C13.9365 6.66666 13.75 6.85321 13.75 7.08333C13.75 7.31345 13.9365 7.5 14.1667 7.5Z" fill="#F6FAFD"/>
    <path d="M6.66667 7.5C6.89679 7.5 7.08333 7.31345 7.08333 7.08333C7.08333 6.85321 6.89679 6.66666 6.66667 6.66666C6.43655 6.66666 6.25 6.85321 6.25 7.08333C6.25 7.31345 6.43655 7.5 6.66667 7.5Z" fill="#F6FAFD"/>
    <path d="M10 1.66666C15.0625 1.66666 19.1667 5.21125 19.1667 9.58333H19.573C19.4581 7.12169 18.3993 4.7989 16.6167 3.09746C14.834 1.39602 12.4644 0.446701 10 0.446701C7.53572 0.446701 5.16611 1.39602 3.38342 3.09746C1.60073 4.7989 0.541992 7.12169 0.427124 9.58333H0.833374C0.833374 5.21125 4.93754 1.66666 10 1.66666Z" fill="#FFE369"/>
    <path d="M19.1667 9.58333C19.1667 13.9554 15.0625 17.5 10 17.5C4.93752 17.5 0.833354 13.9554 0.833354 9.58333H0.427104C0.42127 9.72166 0.416687 9.86041 0.416687 9.99999C0.416687 12.5417 1.42636 14.9792 3.22358 16.7764C5.0208 18.5737 7.45836 19.5833 10 19.5833C12.5417 19.5833 14.9792 18.5737 16.7765 16.7764C18.5737 14.9792 19.5834 12.5417 19.5834 9.99999C19.5834 9.86041 19.5788 9.72166 19.5729 9.58333H19.1667Z" fill="#FFB32B"/>
    <path d="M13.3334 13.3333H6.66669V14.1667H13.3334V13.3333Z" fill="#273941"/>
    <path d="M15.755 4.08811C15.8892 3.95382 15.8465 3.69358 15.6596 3.50685C15.4728 3.32011 15.2125 3.27759 15.0783 3.41188C14.9441 3.54617 14.9868 3.80642 15.1737 3.99315C15.3605 4.17989 15.6208 4.2224 15.755 4.08811Z" fill="#F6FAFD"/>
    <path d="M12.9799 2.04376C13.0471 1.97653 13.0258 1.84635 12.9324 1.75298C12.8389 1.65961 12.7087 1.63842 12.6415 1.70565C12.5744 1.77287 12.5956 1.90306 12.6891 1.99643C12.7825 2.08979 12.9127 2.11099 12.9799 2.04376Z" fill="#F6FAFD"/>
    <path d="M14.8437 3.59319C15.1121 3.32461 15.0265 2.80399 14.6527 2.43036C14.2788 2.05673 13.7581 1.97156 13.4897 2.24014C13.2213 2.50872 13.3068 3.02934 13.6807 3.40297C14.0546 3.77661 14.5753 3.86177 14.8437 3.59319Z" fill="#F6FAFD"/>
    </g>
    <defs>
    <clipPath id="clip0_4720_4234">
    <rect width="20" height="20" fill="white"/>
    </clipPath>
    </defs>
    </svg>