<svg xmlns="http://www.w3.org/2000/svg" width="20" height="20" viewBox="0 0 20 20" fill="none">
    <g clip-path="url(#clip0_4720_4287)">
      <path d="M10 19.5833C15.2927 19.5833 19.5834 15.2927 19.5834 10C19.5834 4.70727 15.2927 0.416664 10 0.416664C4.70729 0.416664 0.416687 4.70727 0.416687 10C0.416687 15.2927 4.70729 19.5833 10 19.5833Z" fill="#FFCE52"/>
      <path d="M10 1.66666C15.0625 1.66666 19.1667 5.21125 19.1667 9.58333H19.573C19.4581 7.12169 18.3993 4.7989 16.6167 3.09746C14.834 1.39602 12.4644 0.446701 10 0.446701C7.53572 0.446701 5.16611 1.39602 3.38342 3.09746C1.60073 4.7989 0.541992 7.12169 0.427124 9.58333H0.833374C0.833374 5.21125 4.93754 1.66666 10 1.66666Z" fill="#FFE369"/>
      <path d="M19.1667 9.58333C19.1667 13.9554 15.0625 17.5 10 17.5C4.93752 17.5 0.833354 13.9554 0.833354 9.58333H0.427104C0.42127 9.72166 0.416687 9.86041 0.416687 9.99999C0.416687 12.5417 1.42636 14.9792 3.22358 16.7764C5.0208 18.5737 7.45836 19.5833 10 19.5833C12.5417 19.5833 14.9792 18.5737 16.7765 16.7764C18.5737 14.9792 19.5834 12.5417 19.5834 9.99999C19.5834 9.86041 19.5788 9.72166 19.5729 9.58333H19.1667Z" fill="#FFB32B"/>
      <path d="M15.5467 3.46311C15.6809 3.32882 15.6382 3.06858 15.4513 2.88185C15.2645 2.69511 15.0042 2.65259 14.87 2.78688C14.7358 2.92117 14.7785 3.18142 14.9654 3.36815C15.1522 3.55489 15.4125 3.5974 15.5467 3.46311Z" fill="#F6FAFD"/>
      <path d="M12.7717 1.83572C12.8389 1.7685 12.8176 1.63831 12.7242 1.54494C12.6307 1.45157 12.5005 1.43038 12.4333 1.49761C12.3662 1.56483 12.3874 1.69502 12.4809 1.78839C12.5743 1.88176 12.7045 1.90295 12.7717 1.83572Z" fill="#F6FAFD"/>
      <path d="M14.6354 2.96819C14.9038 2.69961 14.8182 2.17899 14.4443 1.80536C14.0704 1.43173 13.5498 1.34656 13.2814 1.61514C13.013 1.88372 13.0985 2.40434 13.4724 2.77797C13.8463 3.15161 14.367 3.23677 14.6354 2.96819Z" fill="#F6FAFD"/>
      <path d="M15 10C16.3807 10 17.5 8.88071 17.5 7.5C17.5 6.11929 16.3807 5 15 5C13.6193 5 12.5 6.11929 12.5 7.5C12.5 8.88071 13.6193 10 15 10Z" fill="url(#paint0_radial_4720_4287)"/>
      <path d="M5 10C6.38071 10 7.5 8.88071 7.5 7.5C7.5 6.11929 6.38071 5 5 5C3.61929 5 2.5 6.11929 2.5 7.5C2.5 8.88071 3.61929 10 5 10Z" fill="url(#paint1_radial_4720_4287)"/>
      <path d="M10 11.6667C8.1621 11.6667 6.66669 10.3583 6.66669 8.74999H7.50002C7.50002 9.89874 8.62127 10.8333 10 10.8333C11.3788 10.8333 12.5 9.89874 12.5 8.74999H13.3334C13.3334 10.3583 11.8379 11.6667 10 11.6667ZM15.8334 5.41666H15C15 5.08514 14.8683 4.7672 14.6339 4.53278C14.3995 4.29836 14.0815 4.16666 13.75 4.16666C13.4185 4.16666 13.1006 4.29836 12.8661 4.53278C12.6317 4.7672 12.5 5.08514 12.5 5.41666H11.6667C11.6667 4.86413 11.8862 4.33422 12.2769 3.94352C12.6676 3.55282 13.1975 3.33333 13.75 3.33333C14.3026 3.33333 14.8325 3.55282 15.2232 3.94352C15.6139 4.33422 15.8334 4.86413 15.8334 5.41666ZM8.33335 5.41666H7.50002C7.50002 5.08514 7.36832 4.7672 7.1339 4.53278C6.89948 4.29836 6.58154 4.16666 6.25002 4.16666C5.9185 4.16666 5.60056 4.29836 5.36614 4.53278C5.13172 4.7672 5.00002 5.08514 5.00002 5.41666H4.16669C4.16669 4.86413 4.38618 4.33422 4.77688 3.94352C5.16758 3.55282 5.69749 3.33333 6.25002 3.33333C6.80256 3.33333 7.33246 3.55282 7.72316 3.94352C8.11386 4.33422 8.33335 4.86413 8.33335 5.41666Z" fill="#273941"/>
    </g>
    <defs>
      <radialGradient id="paint0_radial_4720_4287" cx="0" cy="0" r="1" gradientUnits="userSpaceOnUse" gradientTransform="translate(15 7.5) scale(2.5)">
        <stop stop-color="#FF568D"/>
        <stop offset="0.454" stop-color="#FF9678"/>
        <stop offset="0.817" stop-color="#FFC26A"/>
        <stop offset="1" stop-color="#FFD364"/>
      </radialGradient>
      <radialGradient id="paint1_radial_4720_4287" cx="0" cy="0" r="1" gradientUnits="userSpaceOnUse" gradientTransform="translate(5 0.208333) scale(0.208333)">
        <stop stop-color="#FF568D"/>
        <stop offset="0.454" stop-color="#FF9678"/>
        <stop offset="0.817" stop-color="#FFC26A"/>
        <stop offset="1" stop-color="#FFD364"/>
      </radialGradient>
      <clipPath id="clip0_4720_4287">
        <rect width="20" height="20" fill="white"/>
      </clipPath>
    </defs>
  </svg>