 <svg xmlns="http://www.w3.org/2000/svg" width="41" height="40" viewBox="0 0 41 40" fill="none">
                      <path d="M20.8 39.1667C31.3854 39.1667 39.9666 30.5855 39.9666 20C39.9666 9.41458 31.3854 0.833374 20.8 0.833374C10.2145 0.833374 1.6333 9.41458 1.6333 20C1.6333 30.5855 10.2145 39.1667 20.8 39.1667Z" fill="#FFCE52" />
                      <path d="M20.8 3.33336C30.925 3.33336 39.1333 10.4225 39.1333 19.1667H39.9458C39.7161 14.2434 37.5986 9.59783 34.0332 6.19495C30.4679 2.79206 25.7287 0.893433 20.8 0.893433C15.8714 0.893433 11.1321 2.79206 7.56676 6.19495C4.00139 9.59783 1.88391 14.2434 1.65417 19.1667H2.46667C2.46667 10.4225 10.675 3.33336 20.8 3.33336Z" fill="#FFE369" />
                      <path d="M39.1333 19.1667C39.1333 27.9109 30.925 35.0001 20.8 35.0001C10.675 35.0001 2.46663 27.9109 2.46663 19.1667H1.65413C1.64247 19.4434 1.6333 19.7209 1.6333 20.0001C1.6333 25.0834 3.65264 29.9585 7.24709 33.553C10.8415 37.1474 15.7167 39.1667 20.8 39.1667C25.8833 39.1667 30.7584 37.1474 34.3528 33.553C37.9473 29.9585 39.9666 25.0834 39.9666 20.0001C39.9666 19.7209 39.9575 19.4434 39.9458 19.1667H39.1333Z" fill="#FFB32B" />
                      <path d="M31.8933 6.92621C32.1617 6.65763 32.0763 6.13715 31.7026 5.76368C31.3289 5.3902 30.8083 5.30517 30.5399 5.57375C30.2715 5.84233 30.3569 6.36282 30.7307 6.73629C31.1044 7.10976 31.6249 7.19479 31.8933 6.92621Z" fill="#F6FAFD" />
                      <path d="M26.3433 3.67143C26.4777 3.53698 26.4351 3.2766 26.2482 3.08987C26.0614 2.90313 25.801 2.86075 25.6666 2.9952C25.5323 3.12965 25.5748 3.39003 25.7617 3.57676C25.9486 3.7635 26.209 3.80588 26.3433 3.67143Z" fill="#F6FAFD" />
                      <path d="M30.0707 5.93637C30.6074 5.39921 30.4364 4.35797 29.6886 3.61071C28.9408 2.86344 27.8995 2.69311 27.3627 3.23027C26.8259 3.76743 26.997 4.80866 27.7447 5.55593C28.4925 6.3032 29.5339 6.47352 30.0707 5.93637Z" fill="#F6FAFD" />
                      <path d="M30.7999 20C33.5614 20 35.7999 17.7614 35.7999 15C35.7999 12.2386 33.5614 10 30.7999 10C28.0385 10 25.7999 12.2386 25.7999 15C25.7999 17.7614 28.0385 20 30.7999 20Z" fill="url(#paint0_radial_6207_1324)" />
                      <path d="M10.7999 20C13.5614 20 15.7999 17.7614 15.7999 15C15.7999 12.2386 13.5614 10 10.7999 10C8.0385 10 5.79993 12.2386 5.79993 15C5.79993 17.7614 8.0385 20 10.7999 20Z" fill="url(#paint1_radial_6207_1324)" />
                      <path d="M20.8 23.3334C17.1241 23.3334 14.1333 20.7167 14.1333 17.5001H15.8C15.8 19.7976 18.0425 21.6667 20.8 21.6667C23.5575 21.6667 25.8 19.7976 25.8 17.5001H27.4666C27.4666 20.7167 24.4758 23.3334 20.8 23.3334ZM32.4666 10.8334H30.8C30.8 10.1704 30.5366 9.53449 30.0677 9.06565C29.5989 8.59681 28.963 8.33341 28.3 8.33341C27.6369 8.33341 27.001 8.59681 26.5322 9.06565C26.0634 9.53449 25.8 10.1704 25.8 10.8334H24.1333C24.1333 9.72835 24.5723 8.66854 25.3537 7.88714C26.1351 7.10573 27.1949 6.66675 28.3 6.66675C29.405 6.66675 30.4648 7.10573 31.2462 7.88714C32.0276 8.66854 32.4666 9.72835 32.4666 10.8334ZM17.4666 10.8334H15.8C15.8 10.1704 15.5366 9.53449 15.0677 9.06565C14.5989 8.59681 13.963 8.33341 13.3 8.33341C12.6369 8.33341 12.001 8.59681 11.5322 9.06565C11.0634 9.53449 10.8 10.1704 10.8 10.8334H9.1333C9.1333 9.72835 9.57229 8.66854 10.3537 7.88714C11.1351 7.10573 12.1949 6.66675 13.3 6.66675C14.405 6.66675 15.4648 7.10573 16.2462 7.88714C17.0276 8.66854 17.4666 9.72835 17.4666 10.8334Z" fill="#273941" />
                      <defs>
                        <radialGradient id="paint0_radial_6207_1324" cx="0" cy="0" r="1" gradientUnits="userSpaceOnUse" gradientTransform="translate(30.7999 15) scale(5)">
                          <stop stop-color="#FF568D" />
                          <stop offset="0.454" stop-color="#FF9678" />
                          <stop offset="0.817" stop-color="#FFC26A" />
                          <stop offset="1" stop-color="#FFD364" />
                        </radialGradient>
                        <radialGradient id="paint1_radial_6207_1324" cx="0" cy="0" r="1" gradientUnits="userSpaceOnUse" gradientTransform="translate(10.7999 0.416667) scale(0.416667)">
                          <stop stop-color="#FF568D" />
                          <stop offset="0.454" stop-color="#FF9678" />
                          <stop offset="0.817" stop-color="#FFC26A" />
                          <stop offset="1" stop-color="#FFD364" />
                        </radialGradient>
                      </defs>
                    </svg>