<svg width="20" height="20" viewBox="0 0 20 20" fill="none" xmlns="http://www.w3.org/2000/svg">
<path d="M17.7083 3.3335C17.874 3.3335 18.033 3.39934 18.1502 3.51655C18.2674 3.63376 18.3333 3.79274 18.3333 3.9585V9.37516C18.3333 10.204 18.004 10.9988 17.418 11.5849C16.8319 12.1709 16.0371 12.5002 15.2083 12.5002H3.82242L6.92242 15.6002C7.02814 15.7061 7.09235 15.8464 7.10336 15.9957C7.11437 16.145 7.07146 16.2932 6.98242 16.4135L6.92242 16.4835C6.81655 16.5896 6.67609 16.6541 6.52664 16.6652C6.3772 16.6764 6.22871 16.6335 6.10825 16.5443L6.03825 16.4835L1.87159 12.3168C1.76574 12.211 1.70138 12.0707 1.69022 11.9215C1.67905 11.7722 1.72183 11.6239 1.81075 11.5035L1.87159 11.4335L6.03825 7.26683C6.14992 7.15603 6.29926 7.09142 6.45647 7.08588C6.61368 7.08035 6.7672 7.13429 6.88638 7.23696C7.00556 7.33963 7.08165 7.48347 7.09945 7.63976C7.11725 7.79606 7.07546 7.95332 6.98242 8.08016L6.92242 8.15016L3.82242 11.2502H15.2099C15.6849 11.25 16.1421 11.0696 16.4892 10.7454C16.8363 10.4212 17.0474 9.97734 17.0799 9.5035L17.0849 9.37516V3.9585C17.0849 3.79274 17.1508 3.63376 17.268 3.51655C17.3852 3.39934 17.5442 3.3335 17.7099 3.3335H17.7083Z" fill="white"/>
</svg>
