<svg width="20" height="21" viewBox="0 0 20 21" fill="none" xmlns="http://www.w3.org/2000/svg">
<path d="M8.35857 7.97406C8.1145 7.72998 7.71877 7.72998 7.47469 7.97406C7.23061 8.21814 7.23061 8.61387 7.47469 8.85794L9.11609 10.4993L7.47471 12.1407C7.23063 12.3848 7.23063 12.7805 7.47471 13.0246C7.71879 13.2687 8.11451 13.2687 8.35859 13.0246L9.99997 11.3832L11.6413 13.0246C11.8854 13.2687 12.2811 13.2687 12.5252 13.0246C12.7693 12.7805 12.7693 12.3848 12.5252 12.1407L10.8839 10.4993L12.5252 8.85796C12.7693 8.61388 12.7693 8.21816 12.5252 7.97408C12.2812 7.73 11.8854 7.73 11.6414 7.97408L9.99997 9.61546L8.35857 7.97406Z" fill="#ED0A34"/>
<path fill-rule="evenodd" clip-rule="evenodd" d="M9.99999 1.54102C5.05244 1.54102 1.04166 5.5518 1.04166 10.4993C1.04166 15.4469 5.05244 19.4577 9.99999 19.4577C14.9475 19.4577 18.9583 15.4469 18.9583 10.4993C18.9583 5.5518 14.9475 1.54102 9.99999 1.54102ZM2.29166 10.4993C2.29166 6.24215 5.74279 2.79102 9.99999 2.79102C14.2572 2.79102 17.7083 6.24215 17.7083 10.4993C17.7083 14.7565 14.2572 18.2077 9.99999 18.2077C5.74279 18.2077 2.29166 14.7565 2.29166 10.4993Z" fill="#ED0A34"/>
</svg>
