<svg xmlns="http://www.w3.org/2000/svg" width="150" height="150" viewBox="0 0 150 150" fill="none">
  <path d="M112.5 25H37.5C27.1447 25 18.75 33.3947 18.75 43.75V118.75C18.75 129.105 27.1447 137.5 37.5 137.5H112.5C122.855 137.5 131.25 129.105 131.25 118.75V43.75C131.25 33.3947 122.855 25 112.5 25Z" fill="#BF8AFF"/>
  <path d="M93.75 81.25H56.25C54.5924 81.25 53.0027 80.5915 51.8306 79.4194C50.6585 78.2473 50 76.6576 50 75C50 73.3424 50.6585 71.7527 51.8306 70.5806C53.0027 69.4085 54.5924 68.75 56.25 68.75H93.75C95.4076 68.75 96.9973 69.4085 98.1694 70.5806C99.3415 71.7527 100 73.3424 100 75C100 76.6576 99.3415 78.2473 98.1694 79.4194C96.9973 80.5915 95.4076 81.25 93.75 81.25ZM93.75 106.25H56.25C54.5924 106.25 53.0027 105.592 51.8306 104.419C50.6585 103.247 50 101.658 50 100C50 98.3424 50.6585 96.7527 51.8306 95.5806C53.0027 94.4085 54.5924 93.75 56.25 93.75H93.75C95.4076 93.75 96.9973 94.4085 98.1694 95.5806C99.3415 96.7527 100 98.3424 100 100C100 101.658 99.3415 103.247 98.1694 104.419C96.9973 105.592 95.4076 106.25 93.75 106.25Z" fill="white"/>
  <path d="M87.5 12.5H62.5C57.5272 12.5 52.7581 14.4754 49.2417 17.9917C45.7254 21.5081 43.75 26.2772 43.75 31.25C43.75 36.2228 45.7254 40.9919 49.2417 44.5083C52.7581 48.0246 57.5272 50 62.5 50H87.5C92.4728 50 97.2419 48.0246 100.758 44.5083C104.275 40.9919 106.25 36.2228 106.25 31.25C106.25 26.2772 104.275 21.5081 100.758 17.9917C97.2419 14.4754 92.4728 12.5 87.5 12.5Z" fill="#6525B3"/>
</svg>