<svg xmlns="http://www.w3.org/2000/svg" width="17" height="16" viewBox="0 0 17 16" fill="none">
<path d="M8.5 7.33333H14.1886C14.2179 7.5898 14.2333 7.8528 14.2333 8.12247C14.2333 9.9456 13.5803 11.4803 12.4483 12.5225C11.4578 13.4367 10.1027 13.9728 8.4864 13.9728C6.14622 13.9728 4.12177 12.6313 3.13673 10.6749C2.7313 9.86667 2.5 8.9524 2.5 7.9864C2.5 7.0204 2.7313 6.10613 3.13673 5.29799C4.12177 3.34151 6.14622 2 8.4864 2C10.1 2 11.4551 2.59322 12.4918 3.55919L11.517 4.53401C10.7455 3.78769 9.70187 3.33333 8.5 3.33333C5.92267 3.33333 3.83333 5.42267 3.83333 8C3.83333 10.5773 5.92267 12.6667 8.5 12.6667C10.851 12.6667 12.5962 10.9282 12.8847 8.66667H8.5V7.33333Z" fill="#AFAFAF"/>
</svg>