<svg width="20" height="20" viewBox="0 0 20 20" fill="none" xmlns="http://www.w3.org/2000/svg">
<path d="M10.1848 4.98108C11.3693 4.96115 12.5139 5.40892 13.3704 6.22729L15.7606 3.83714C14.2522 2.42047 12.254 1.64265 10.1848 1.66668C7.03405 1.66547 4.1522 3.44207 2.73785 6.2576L5.52195 8.41668C6.17845 6.38988 8.05453 5.00759 10.1848 4.98108Z" fill="#333333"/>
<path d="M2.73787 6.25757C1.55605 8.61256 1.55605 11.3874 2.73787 13.7424L5.52193 11.5833C5.1735 10.5565 5.1735 9.44347 5.52193 8.41667L2.73787 6.25757Z" fill="#333333"/>
<path d="M13.0069 14.2235C10.6702 15.7234 7.56009 15.045 6.06025 12.7083C5.83483 12.3571 5.65402 11.9792 5.52197 11.5833L2.73792 13.7424C4.15223 16.558 7.0341 18.3346 10.1849 18.3333C12.2135 18.3884 14.1864 17.6661 15.7 16.3144L13.0069 14.2235Z" fill="#333333"/>
<path d="M18.0333 8.48486H10.1849V11.7083H14.6697C14.4822 12.7387 13.8814 13.6474 13.0068 14.2235L15.7 16.3145C17.3585 14.717 18.2617 12.4909 18.1849 10.1894C18.1853 9.61783 18.1346 9.0474 18.0333 8.48486Z" fill="#333333"/>
</svg>
