<svg width="14" height="14" viewBox="0 0 13 13" fill="none" xmlns="http://www.w3.org/2000/svg">
<path fill-rule="evenodd" clip-rule="evenodd" d="M11.7409 6.42513C11.7409 9.23258 9.465 11.5085 6.65755 11.5085C3.8501 11.5085 1.57422 9.23258 1.57422 6.42513C1.57422 3.61768 3.8501 1.3418 6.65755 1.3418C9.465 1.3418 11.7409 3.61768 11.7409 6.42513ZM8.7063 4.88471C8.85519 5.0336 8.85519 5.27499 8.7063 5.42388L6.16464 7.96555C6.01575 8.11444 5.77435 8.11444 5.62547 7.96555L4.6088 6.94888C4.45991 6.79999 4.45991 6.5586 4.6088 6.40971C4.75769 6.26082 4.99908 6.26082 5.14797 6.40971L5.89505 7.15679L7.03109 6.02075L8.16713 4.88471C8.31602 4.73582 8.55742 4.73582 8.7063 4.88471Z" fill="#008000"/>
</svg>
