 <svg xmlns="http://www.w3.org/2000/svg" width="41" height="40" viewBox="0 0 41 40" fill="none">
                    <path d="M20.6 39.1667C31.1855 39.1667 39.7667 30.5855 39.7667 20C39.7667 9.41458 31.1855 0.833374 20.6 0.833374C10.0146 0.833374 1.43335 9.41458 1.43335 20C1.43335 30.5855 10.0146 39.1667 20.6 39.1667Z" fill="#FFCE52" />
                    <path d="M28.1 18.3334C29.4807 18.3334 30.6 16.841 30.6 15.0001C30.6 13.1591 29.4807 11.6667 28.1 11.6667C26.7193 11.6667 25.6 13.1591 25.6 15.0001C25.6 16.841 26.7193 18.3334 28.1 18.3334Z" fill="#273941" />
                    <path d="M13.1 18.3334C14.4807 18.3334 15.6 16.841 15.6 15.0001C15.6 13.1591 14.4807 11.6667 13.1 11.6667C11.7193 11.6667 10.6 13.1591 10.6 15.0001C10.6 16.841 11.7193 18.3334 13.1 18.3334Z" fill="#273941" />
                    <path d="M28.1 17.5C29.0205 17.5 29.7667 16.3807 29.7667 15C29.7667 13.6193 29.0205 12.5 28.1 12.5C27.1795 12.5 26.4333 13.6193 26.4333 15C26.4333 16.3807 27.1795 17.5 28.1 17.5Z" fill="#141E21" />
                    <path d="M13.1 17.5C14.0205 17.5 14.7667 16.3807 14.7667 15C14.7667 13.6193 14.0205 12.5 13.1 12.5C12.1795 12.5 11.4333 13.6193 11.4333 15C11.4333 16.3807 12.1795 17.5 13.1 17.5Z" fill="#141E21" />
                    <path d="M28.9334 15C29.3936 15 29.7667 14.6269 29.7667 14.1667C29.7667 13.7065 29.3936 13.3334 28.9334 13.3334C28.4731 13.3334 28.1 13.7065 28.1 14.1667C28.1 14.6269 28.4731 15 28.9334 15Z" fill="#F6FAFD" />
                    <path d="M13.9334 15C14.3936 15 14.7667 14.6269 14.7667 14.1667C14.7667 13.7065 14.3936 13.3334 13.9334 13.3334C13.4731 13.3334 13.1 13.7065 13.1 14.1667C13.1 14.6269 13.4731 15 13.9334 15Z" fill="#F6FAFD" />
                    <path d="M20.6 3.33336C30.725 3.33336 38.9333 10.4225 38.9333 19.1667H39.7458C39.5161 14.2434 37.3986 9.59783 33.8332 6.19495C30.2679 2.79206 25.5286 0.893433 20.6 0.893433C15.6714 0.893433 10.9321 2.79206 7.36675 6.19495C3.80137 9.59783 1.6839 14.2434 1.45416 19.1667H2.26666C2.26666 10.4225 10.475 3.33336 20.6 3.33336Z" fill="#FFE369" />
                    <path d="M38.9333 19.1667C38.9333 27.9109 30.725 35.0001 20.6 35.0001C10.475 35.0001 2.26668 27.9109 2.26668 19.1667H1.45418C1.44252 19.4434 1.43335 19.7209 1.43335 20.0001C1.43335 25.0834 3.45269 29.9585 7.04714 33.553C10.6416 37.1474 15.5167 39.1667 20.6 39.1667C25.6833 39.1667 30.5584 37.1474 34.1529 33.553C37.7473 29.9585 39.7667 25.0834 39.7667 20.0001C39.7667 19.7209 39.7575 19.4434 39.7458 19.1667H38.9333Z" fill="#FFB32B" />
                    <path d="M27.2667 26.6667H13.9333V28.3334H27.2667V26.6667Z" fill="#273941" />
                    <path d="M32.1101 8.17621C32.3785 7.90763 32.2931 7.38715 31.9193 7.01368C31.5456 6.6402 31.025 6.55517 30.7567 6.82375C30.4883 7.09233 30.5737 7.61282 30.9474 7.98629C31.3211 8.35976 31.8417 8.44479 32.1101 8.17621Z" fill="#F6FAFD" />
                    <path d="M26.5598 4.08757C26.6942 3.95311 26.6516 3.69274 26.4647 3.506C26.2779 3.31927 26.0175 3.27689 25.8831 3.41134C25.7488 3.54579 25.7913 3.80616 25.9782 3.9929C26.165 4.17964 26.4255 4.22202 26.5598 4.08757Z" fill="#F6FAFD" />
                    <path d="M30.2873 7.18636C30.8241 6.64921 30.6531 5.60797 29.9053 4.8607C29.1575 4.11344 28.1161 3.94311 27.5794 4.48027C27.0426 5.01743 27.2136 6.05866 27.9614 6.80593C28.7092 7.5532 29.7506 7.72352 30.2873 7.18636Z" fill="#F6FAFD" />
                  </svg>