<svg
xmlns="http://www.w3.org/2000/svg"
width="22"
height="24"
viewBox="0 0 18 20"
fill="none"
>
<path
  fill-rule="evenodd"
  clip-rule="evenodd"
  d="M1.17157 1.17157C0 2.34315 0 4.22876 0 8V12C0 15.7712 0 17.6569 1.17157 18.8284C2.34315 20 4.22876 20 8 20H10C13.7712 20 15.6569 20 16.8284 18.8284C18 17.6569 18 15.7712 18 12V8C18 4.22876 18 2.34315 16.8284 1.17157C15.6569 0 13.7712 0 10 0H8C4.22876 0 2.34315 0 1.17157 1.17157ZM5 7.25C4.58579 7.25 4.25 7.58579 4.25 8C4.25 8.41421 4.58579 8.75 5 8.75H13C13.4142 8.75 13.75 8.41421 13.75 8C13.75 7.58579 13.4142 7.25 13 7.25H5ZM5 11.25C4.58579 11.25 4.25 11.5858 4.25 12C4.25 12.4142 4.58579 12.75 5 12.75H10C10.4142 12.75 10.75 12.4142 10.75 12C10.75 11.5858 10.4142 11.25 10 11.25H5Z"
  fill="white"
/>
</svg>