 <svg xmlns="http://www.w3.org/2000/svg" width="41" height="40" viewBox="0 0 41 40" fill="none">
                    <path d="M20.2 39.1667C30.7854 39.1667 39.3667 30.5855 39.3667 20C39.3667 9.41458 30.7854 0.833374 20.2 0.833374C9.61453 0.833374 1.03333 9.41458 1.03333 20C1.03333 30.5855 9.61453 39.1667 20.2 39.1667Z" fill="#FFCE52" />
                    <path d="M17.7 30.0117L16.0333 30.0001C16.0333 27.3684 21.7958 26.6667 25.2 26.6667V28.3334C20.3175 28.3334 17.8225 29.5492 17.7 30.0117Z" fill="#273941" />
                    <path d="M32.8167 13.2667C32.7817 13.205 32.7383 13.1483 32.7 13.0883V14.1667C32.7 14.6087 32.5244 15.0326 32.2118 15.3452C31.8993 15.6577 31.4754 15.8333 31.0333 15.8333C30.5913 15.8333 30.1674 15.6577 29.8548 15.3452C29.5423 15.0326 29.3667 14.6087 29.3667 14.1667V12.5H24.8167C23.9883 13.4123 23.5306 14.6011 23.5333 15.8333C23.5333 17.1594 24.0601 18.4312 24.9978 19.3689C25.9355 20.3065 27.2073 20.8333 28.5333 20.8333C29.8594 20.8333 31.1312 20.3065 32.0689 19.3689C33.0066 18.4312 33.5333 17.1594 33.5333 15.8333C33.5365 14.9279 33.2884 14.0394 32.8167 13.2667Z" fill="#F6FAFD" />
                    <path d="M31.0333 15.8333C31.4753 15.8333 31.8993 15.6577 32.2118 15.3452C32.5244 15.0326 32.7 14.6087 32.7 14.1667V13.0883C32.5673 12.8796 32.4167 12.6827 32.25 12.5H29.3666V14.1667C29.3666 14.6087 29.5422 15.0326 29.8548 15.3452C30.1674 15.6577 30.5913 15.8333 31.0333 15.8333Z" fill="#141E21" />
                    <path d="M16.15 13.2667C16.115 13.205 16.0716 13.1483 16.0333 13.0883V14.1667C16.0333 14.6087 15.8577 15.0326 15.5452 15.3452C15.2326 15.6577 14.8087 15.8333 14.3667 15.8333C13.9246 15.8333 13.5007 15.6577 13.1881 15.3452C12.8756 15.0326 12.7 14.6087 12.7 14.1667V12.5H8.14998C7.32164 13.4123 6.86394 14.6011 6.86665 15.8333C6.86665 17.1594 7.39343 18.4312 8.33112 19.3689C9.2688 20.3065 10.5406 20.8333 11.8667 20.8333C13.1927 20.8333 14.4645 20.3065 15.4022 19.3689C16.3399 18.4312 16.8666 17.1594 16.8666 15.8333C16.8699 14.9279 16.6218 14.0394 16.15 13.2667Z" fill="#F6FAFD" />
                    <path d="M14.3667 15.8333C14.8087 15.8333 15.2326 15.6577 15.5452 15.3452C15.8578 15.0326 16.0333 14.6087 16.0333 14.1667V13.0883C15.9006 12.8796 15.7501 12.6827 15.5833 12.5H12.7V14.1667C12.7 14.6087 12.8756 15.0326 13.1882 15.3452C13.5007 15.6577 13.9247 15.8333 14.3667 15.8333Z" fill="#141E21" />
                    <path d="M20.2 3.33336C30.325 3.33336 38.5333 10.4225 38.5333 19.1667H39.3458C39.1161 14.2434 36.9986 9.59783 33.4332 6.19495C29.8678 2.79206 25.1286 0.893433 20.2 0.893433C15.2713 0.893433 10.5321 2.79206 6.96673 6.19495C3.40135 9.59783 1.28387 14.2434 1.05414 19.1667H1.86664C1.86664 10.4225 10.075 3.33336 20.2 3.33336Z" fill="#FFE369" />
                    <path d="M38.5333 19.1667C38.5333 27.9109 30.325 35.0001 20.2 35.0001C10.075 35.0001 1.86666 27.9109 1.86666 19.1667H1.05416C1.04249 19.4434 1.03333 19.7209 1.03333 20.0001C1.03333 25.0834 3.05266 29.9585 6.64711 33.553C10.2416 37.1474 15.1167 39.1667 20.2 39.1667C25.2833 39.1667 30.1584 37.1474 33.7529 33.553C37.3473 29.9585 39.3667 25.0834 39.3667 20.0001C39.3667 19.7209 39.3575 19.4434 39.3458 19.1667H38.5333Z" fill="#FFB32B" />
                    <path d="M31.2933 7.75958C31.5617 7.49101 31.4763 6.97052 31.1026 6.59705C30.7289 6.22358 30.2083 6.13855 29.9399 6.40713C29.6716 6.67571 29.7569 7.19619 30.1307 7.56966C30.5044 7.94313 31.025 8.02816 31.2933 7.75958Z" fill="#F6FAFD" />
                    <path d="M25.7433 3.67143C25.8777 3.53698 25.8351 3.2766 25.6483 3.08987C25.4614 2.90313 25.201 2.86075 25.0666 2.9952C24.9323 3.12965 24.9748 3.39003 25.1617 3.57676C25.3486 3.7635 25.609 3.80588 25.7433 3.67143Z" fill="#F6FAFD" />
                    <path d="M29.4706 6.76974C30.0074 6.23258 29.8364 5.19135 29.0886 4.44408C28.3408 3.69681 27.2994 3.52649 26.7626 4.06364C26.2259 4.6008 26.3969 5.64203 27.1447 6.3893C27.8925 7.13657 28.9338 7.3069 29.4706 6.76974Z" fill="#F6FAFD" />
                    <path d="M28.5333 20.8334C27.3547 20.8323 26.2143 20.4149 25.3135 19.6548C24.4127 18.8948 23.8094 17.8409 23.61 16.6792C23.4835 17.3985 23.5161 18.1367 23.7054 18.8419C23.8948 19.5472 24.2364 20.2025 24.7061 20.7616C25.1758 21.3207 25.7623 21.7702 26.4244 22.0783C27.0864 22.3865 27.8079 22.5459 28.5382 22.5454C29.2685 22.5448 29.9897 22.3843 30.6513 22.0751C31.3129 21.7659 31.8987 21.3156 32.3676 20.7558C32.8365 20.1959 33.177 19.5402 33.3653 18.8346C33.5536 18.129 33.5851 17.3908 33.4575 16.6717C33.2597 17.8349 32.6569 18.8906 31.7557 19.6522C30.8546 20.4138 29.7132 20.8322 28.5333 20.8334ZM11.8667 20.8334C10.688 20.8323 9.54766 20.4149 8.64685 19.6548C7.74604 18.8948 7.1427 17.8409 6.94332 16.6792C6.81682 17.3985 6.8494 18.1367 7.03877 18.8419C7.22813 19.5472 7.56969 20.2025 8.03942 20.7616C8.50916 21.3207 9.09567 21.7702 9.75772 22.0783C10.4198 22.3865 11.1413 22.5459 11.8715 22.5454C12.6018 22.5448 13.3231 22.3843 13.9846 22.0751C14.6462 21.7659 15.232 21.3156 15.7009 20.7558C16.1698 20.1959 16.5104 19.5402 16.6987 18.8346C16.887 18.129 16.9184 17.3908 16.7908 16.6717C16.593 17.8349 15.9902 18.8906 15.0891 19.6522C14.1879 20.4138 13.0465 20.8322 11.8667 20.8334ZM29.3666 12.5001H32.25C32.4167 12.6828 32.5673 12.8797 32.7 13.0884C32.7383 13.1484 32.7833 13.2051 32.8167 13.2667C33.222 13.9378 33.4596 14.6968 33.5092 15.4792C33.5242 15.3217 33.5333 15.1617 33.5333 15.0001C33.5365 14.0947 33.2884 13.2062 32.8167 12.4334C32.7817 12.3717 32.7383 12.3151 32.7 12.2551C32.5673 12.0463 32.4167 11.8495 32.25 11.6667H24.8167C23.9883 12.579 23.5306 13.7678 23.5333 15.0001C23.5335 15.1766 23.5429 15.3529 23.5617 15.5284C23.623 14.4055 24.0658 13.3372 24.8167 12.5001H29.3666ZM12.7 12.5001H15.5833C15.75 12.6828 15.9006 12.8797 16.0333 13.0884C16.0716 13.1484 16.1166 13.2051 16.15 13.2667C16.5553 13.9378 16.7929 14.6968 16.8425 15.4792C16.8575 15.3217 16.8666 15.1617 16.8666 15.0001C16.8699 14.0947 16.6218 13.2062 16.15 12.4334C16.115 12.3717 16.0716 12.3151 16.0333 12.2551C15.9006 12.0463 15.75 11.8495 15.5833 11.6667H8.14998C7.32164 12.579 6.86394 13.7678 6.86665 15.0001C6.86681 15.1766 6.87627 15.3529 6.89498 15.5284C6.95637 14.4055 7.3991 13.3372 8.14998 12.5001H12.7Z" fill="#FBB40A" />
                  </svg>