 <svg xmlns="http://www.w3.org/2000/svg" width="41" height="40" viewBox="0 0 41 40" fill="none">
                      <path d="M20.3999 39.1667C30.9854 39.1667 39.5666 30.5855 39.5666 20C39.5666 9.41458 30.9854 0.833374 20.3999 0.833374C9.81449 0.833374 1.23328 9.41458 1.23328 20C1.23328 30.5855 9.81449 39.1667 20.3999 39.1667Z" fill="#FFCE52" />
                      <path d="M6.23328 21.6666C6.23328 24.4333 12.5666 27.5 20.3999 27.5C28.2333 27.5 34.5666 24.4333 34.5666 21.6666C34.5509 23.3792 34.1176 25.0622 33.3044 26.5695C32.4912 28.0768 31.3226 29.363 29.8999 30.3166C27.121 32.2795 23.8022 33.3333 20.3999 33.3333C16.9977 33.3333 13.6789 32.2795 10.8999 30.3166C9.47728 29.363 8.30869 28.0768 7.49549 26.5695C6.68229 25.0622 6.24903 23.3792 6.23328 21.6666Z" fill="#AE2D4C" />
                      <path d="M34.5666 21.6666C34.5666 24.4333 28.2333 27.5 20.3999 27.5C12.5666 27.5 6.23328 24.4333 6.23328 21.6666C7.06661 22.5 12.8999 23.3333 20.3999 23.3333C27.8999 23.3333 33.7333 22.5 34.5666 21.6666Z" fill="#F6FAFD" />
                      <path d="M27.8999 18.3333C29.2806 18.3333 30.3999 16.8409 30.3999 15C30.3999 13.159 29.2806 11.6666 27.8999 11.6666C26.5192 11.6666 25.3999 13.159 25.3999 15C25.3999 16.8409 26.5192 18.3333 27.8999 18.3333Z" fill="#273941" />
                      <path d="M12.8999 18.3333C14.2806 18.3333 15.3999 16.8409 15.3999 15C15.3999 13.159 14.2806 11.6666 12.8999 11.6666C11.5192 11.6666 10.3999 13.159 10.3999 15C10.3999 16.8409 11.5192 18.3333 12.8999 18.3333Z" fill="#273941" />
                      <path d="M27.8999 17.5C28.8204 17.5 29.5666 16.3807 29.5666 15C29.5666 13.6193 28.8204 12.5 27.8999 12.5C26.9795 12.5 26.2333 13.6193 26.2333 15C26.2333 16.3807 26.9795 17.5 27.8999 17.5Z" fill="#141E21" />
                      <path d="M12.8999 17.5C13.8204 17.5 14.5666 16.3807 14.5666 15C14.5666 13.6193 13.8204 12.5 12.8999 12.5C11.9795 12.5 11.2333 13.6193 11.2333 15C11.2333 16.3807 11.9795 17.5 12.8999 17.5Z" fill="#141E21" />
                      <path d="M28.7332 15C29.1935 15 29.5666 14.6269 29.5666 14.1667C29.5666 13.7065 29.1935 13.3334 28.7332 13.3334C28.273 13.3334 27.8999 13.7065 27.8999 14.1667C27.8999 14.6269 28.273 15 28.7332 15Z" fill="#F6FAFD" />
                      <path d="M13.7332 15C14.1935 15 14.5666 14.6269 14.5666 14.1667C14.5666 13.7065 14.1935 13.3334 13.7332 13.3334C13.273 13.3334 12.8999 13.7065 12.8999 14.1667C12.8999 14.6269 13.273 15 13.7332 15Z" fill="#F6FAFD" />
                      <path d="M20.3999 29.1666C27.0349 29.1666 32.5774 26.9658 34.1233 24.6116C34.4161 23.6573 34.5656 22.6648 34.5666 21.6666C34.5666 24.4333 28.2333 27.5 20.3999 27.5C12.5666 27.5 6.23328 24.4333 6.23328 21.6666C6.23433 22.6648 6.38374 23.6573 6.67661 24.6116C8.22244 26.9658 13.7649 29.1666 20.3999 29.1666Z" fill="#8A293D" />
                      <path d="M33.2958 23.8791C33.6504 23.6196 33.9467 23.2886 34.1656 22.9075C34.3845 22.5264 34.5211 22.1037 34.5666 21.6666C33.7333 22.5 27.8999 23.3333 20.3999 23.3333C12.8999 23.3333 7.06661 22.5 6.23328 21.6666C6.27881 22.1037 6.41543 22.5264 6.63431 22.9075C6.8532 23.2886 7.14949 23.6196 7.50411 23.8791C9.75244 24.495 14.5666 25 20.3999 25C26.2333 25 31.0474 24.495 33.2958 23.8791Z" fill="#EDEDED" />
                      <path d="M20.3999 3.33336C30.5249 3.33336 38.7332 10.4225 38.7332 19.1667H39.5457C39.316 14.2434 37.1985 9.59783 33.6331 6.19495C30.0677 2.79206 25.3285 0.893433 20.3999 0.893433C15.4712 0.893433 10.732 2.79206 7.16662 6.19495C3.60124 9.59783 1.48377 14.2434 1.25403 19.1667H2.06653C2.06653 10.4225 10.2749 3.33336 20.3999 3.33336Z" fill="#FFE369" />
                      <path d="M38.7333 19.1666C38.7333 27.9108 30.5249 35 20.3999 35C10.2749 35 2.06661 27.9108 2.06661 19.1666H1.25411C1.24244 19.4433 1.23328 19.7208 1.23328 20C1.23328 25.0833 3.25262 29.9584 6.84706 33.5528C10.4415 37.1473 15.3166 39.1666 20.3999 39.1666C25.4833 39.1666 30.3584 37.1473 33.9528 33.5528C37.5473 29.9584 39.5666 25.0833 39.5666 20C39.5666 19.7208 39.5574 19.4433 39.5458 19.1666H38.7333Z" fill="#FFB32B" />
                      <path d="M31.9099 8.17621C32.1783 7.90763 32.0929 7.38715 31.7192 7.01368C31.3455 6.6402 30.8249 6.55517 30.5565 6.82375C30.2881 7.09233 30.3735 7.61282 30.7473 7.98629C31.121 8.35976 31.6415 8.44479 31.9099 8.17621Z" fill="#F6FAFD" />
                      <path d="M26.3597 4.08757C26.494 3.95311 26.4515 3.69274 26.2646 3.506C26.0777 3.31927 25.8173 3.27689 25.683 3.41134C25.5486 3.54579 25.5912 3.80616 25.778 3.9929C25.9649 4.17964 26.2253 4.22202 26.3597 4.08757Z" fill="#F6FAFD" />
                      <path d="M30.0873 7.18636C30.6241 6.64921 30.453 5.60797 29.7052 4.8607C28.9574 4.11344 27.9161 3.94311 27.3793 4.48027C26.8425 5.01743 27.0136 6.05866 27.7613 6.80593C28.5091 7.5532 29.5505 7.72352 30.0873 7.18636Z" fill="#F6FAFD" />
                    </svg>