 <svg xmlns="http://www.w3.org/2000/svg" width="40" height="40" viewBox="0 0 40 40" fill="none">
                      <g clip-path="url(#clip0_6207_1290)">
                        <path d="M20 39.1667C30.5854 39.1667 39.1666 30.5855 39.1666 20C39.1666 9.41458 30.5854 0.833374 20 0.833374C9.41452 0.833374 0.833313 9.41458 0.833313 20C0.833313 30.5855 9.41452 39.1667 20 39.1667Z" fill="#FFCE52" />
                        <path d="M27.5 18.3334C28.8807 18.3334 30 16.841 30 15.0001C30 13.1591 28.8807 11.6667 27.5 11.6667C26.1193 11.6667 25 13.1591 25 15.0001C25 16.841 26.1193 18.3334 27.5 18.3334Z" fill="#273941" />
                        <path d="M12.5 18.3334C13.8807 18.3334 15 16.841 15 15.0001C15 13.1591 13.8807 11.6667 12.5 11.6667C11.1193 11.6667 10 13.1591 10 15.0001C10 16.841 11.1193 18.3334 12.5 18.3334Z" fill="#273941" />
                        <path d="M27.5 17.5C28.4205 17.5 29.1666 16.3807 29.1666 15C29.1666 13.6193 28.4205 12.5 27.5 12.5C26.5795 12.5 25.8333 13.6193 25.8333 15C25.8333 16.3807 26.5795 17.5 27.5 17.5Z" fill="#141E21" />
                        <path d="M12.5 17.5C13.4205 17.5 14.1666 16.3807 14.1666 15C14.1666 13.6193 13.4205 12.5 12.5 12.5C11.5795 12.5 10.8333 13.6193 10.8333 15C10.8333 16.3807 11.5795 17.5 12.5 17.5Z" fill="#141E21" />
                        <path d="M28.3333 15C28.7936 15 29.1667 14.6269 29.1667 14.1667C29.1667 13.7065 28.7936 13.3334 28.3333 13.3334C27.8731 13.3334 27.5 13.7065 27.5 14.1667C27.5 14.6269 27.8731 15 28.3333 15Z" fill="#F6FAFD" />
                        <path d="M13.3333 15C13.7936 15 14.1667 14.6269 14.1667 14.1667C14.1667 13.7065 13.7936 13.3334 13.3333 13.3334C12.8731 13.3334 12.5 13.7065 12.5 14.1667C12.5 14.6269 12.8731 15 13.3333 15Z" fill="#F6FAFD" />
                        <path d="M20 32.5001C13.5666 32.5001 8.33331 27.6401 8.33331 21.6667H9.99998C9.99998 26.7209 14.4858 30.8334 20 30.8334C25.5141 30.8334 30 26.7209 30 21.6667H31.6666C31.6666 27.6401 26.4333 32.5001 20 32.5001Z" fill="#273941" />
                        <path d="M20 3.33336C30.125 3.33336 38.3333 10.4225 38.3333 19.1667H39.1458C38.9161 14.2434 36.7986 9.59783 33.2332 6.19495C29.6678 2.79206 24.9286 0.893433 20 0.893433C15.0713 0.893433 10.3321 2.79206 6.76672 6.19495C3.20134 9.59783 1.08386 14.2434 0.854126 19.1667H1.66663C1.66663 10.4225 9.87496 3.33336 20 3.33336Z" fill="#FFE369" />
                        <path d="M38.3333 19.1667C38.3333 27.9109 30.125 35.0001 20 35.0001C9.87498 35.0001 1.66665 27.9109 1.66665 19.1667H0.854146C0.84248 19.4434 0.833313 19.7209 0.833313 20.0001C0.833313 25.0834 2.85265 29.9585 6.4471 33.553C10.0415 37.1474 14.9167 39.1667 20 39.1667C25.0833 39.1667 29.9584 37.1474 33.5529 33.553C37.1473 29.9585 39.1666 25.0834 39.1666 20.0001C39.1666 19.7209 39.1575 19.4434 39.1458 19.1667H38.3333Z" fill="#FFB32B" />
                        <path d="M31.51 8.17621C31.7784 7.90763 31.693 7.38715 31.3193 7.01368C30.9456 6.6402 30.425 6.55517 30.1566 6.82375C29.8882 7.09233 29.9736 7.61282 30.3474 7.98629C30.7211 8.35976 31.2416 8.44479 31.51 8.17621Z" fill="#F6FAFD" />
                        <path d="M25.9598 4.08757C26.0941 3.95311 26.0516 3.69274 25.8647 3.506C25.6778 3.31927 25.4174 3.27689 25.2831 3.41134C25.1487 3.54579 25.1913 3.80616 25.3781 3.9929C25.565 4.17964 25.8254 4.22202 25.9598 4.08757Z" fill="#F6FAFD" />
                        <path d="M29.6873 7.18636C30.2241 6.64921 30.053 5.60797 29.3052 4.8607C28.5575 4.11344 27.5161 3.94311 26.9793 4.48027C26.4425 5.01743 26.6136 6.05866 27.3614 6.80593C28.1092 7.5532 29.1505 7.72352 29.6873 7.18636Z" fill="#F6FAFD" />
                      </g>
                      <defs>
                        <clipPath id="clip0_6207_1290">
                          <rect width="40" height="40" fill="white" />
                        </clipPath>
                      </defs>
                    </svg>