<svg width="312" height="160" viewBox="0 0 312 160" fill="none" xmlns="http://www.w3.org/2000/svg">
<g clip-path="url(#clip0_3607_7489)">
<rect width="312" height="160" fill="url(#paint0_linear_3607_7489)"/>
<rect x="66" y="29" width="180" height="180" rx="90" fill="white" fill-opacity="0.2"/>
<path d="M188.149 70.3212C184.575 63.638 180.29 60.2509 175.419 60.2509C169.813 60.2509 163.99 64.832 158.109 73.8734C157.379 75.0005 156.676 76.1445 156 77.3047C155.327 76.1437 154.625 74.9996 153.894 73.8734C148.013 64.832 142.191 60.2509 136.581 60.2509C131.71 60.2509 127.429 63.638 123.859 70.3212C121.186 75.3235 122.149 78.916 123.427 81.0474C125.73 84.8888 130.879 87.478 139.166 88.9571C145.53 90.0959 152.265 90.2645 155.715 90.2645H156.289C159.735 90.2645 166.47 90.0959 172.838 88.9571C181.125 87.4777 186.274 84.8888 188.577 81.0474C189.855 78.916 190.818 75.3233 188.149 70.3212Z" fill="#EFEFEF"/>
<path d="M208.498 103.554C208.498 100.789 206.261 98.5552 203.5 98.5552H108.504C105.743 98.5552 103.502 100.789 103.502 103.554V172.751C103.502 175.512 105.743 177.749 108.504 177.749H203.5C206.261 177.749 208.498 175.512 208.498 172.751V103.554Z" fill="#9035FF"/>
<path d="M215.998 107.754C215.998 110.515 213.76 112.749 210.999 112.749H101.004C98.2432 112.749 96.0021 110.515 96.0021 107.754V87.7524C96.0021 84.9913 98.2432 82.7499 101.004 82.7499H210.999C213.76 82.7499 215.998 84.991 215.998 87.7524V107.754Z" fill="#BF8AFF"/>
<path d="M143.502 82.7499H168.502V112.749H143.502V82.7499Z" fill="white"/>
<path opacity="0.1" d="M103.502 117.696L208.498 127.243V112.91H103.502V117.696Z" fill="#2C2C2C"/>
<path d="M166.418 121.706C162.335 121.706 158.648 123.383 156 126.086C153.352 123.384 149.665 121.706 145.585 121.706C137.533 121.706 131.003 128.235 131.003 136.288C131.003 152.954 156 167.54 156 167.54C156 167.54 181.001 152.954 181.001 136.288C181.001 128.235 174.471 121.706 166.418 121.706Z" fill="white"/>
<path opacity="0.1" d="M166.418 121.706C165.58 121.706 164.743 121.778 163.917 121.922C170.78 123.105 176.002 129.089 176.002 136.288C176.002 149.691 159.83 161.746 153.503 165.954C155.044 166.979 156 167.54 156 167.54C156 167.54 181.001 152.954 181.001 136.288C181.001 128.235 174.471 121.706 166.418 121.706Z" fill="#2C2C2C"/>
</g>
<defs>
<linearGradient id="paint0_linear_3607_7489" x1="1.248" y1="160" x2="332.009" y2="93.9537" gradientUnits="userSpaceOnUse">
<stop stop-color="#9035FF"/>
<stop offset="1" stop-color="#0065FF"/>
</linearGradient>
<clipPath id="clip0_3607_7489">
<rect width="312" height="160" fill="white"/>
</clipPath>
</defs>
</svg>
