<svg width="18" height="18" viewBox="0 0 18 18" fill="none" xmlns="http://www.w3.org/2000/svg">
<g id="vuesax/bold/image">
<g id="image">
<path id="Vector" d="M16.515 12.615L14.1675 7.12495C13.74 6.11995 13.1025 5.54995 12.375 5.51245C11.655 5.47495 10.9575 5.97745 10.425 6.93745L8.99998 9.49495C8.69998 10.035 8.27248 10.3575 7.80748 10.395C7.33498 10.44 6.86248 10.1925 6.47998 9.70495L6.31498 9.49495C5.78248 8.82745 5.12248 8.50495 4.44748 8.57245C3.77248 8.63995 3.19498 9.10495 2.81248 9.86245L1.51498 12.45C1.04998 13.3875 1.09498 14.475 1.64248 15.36C2.18998 16.245 3.14248 16.7775 4.18498 16.7775H13.755C14.76 16.7775 15.6975 16.275 16.2525 15.435C16.8225 14.595 16.9125 13.5375 16.515 12.615Z" fill="#4C4C4C"/>
<path id="Vector_2" d="M5.22738 6.28497C6.62742 6.28497 7.76238 5.15001 7.76238 3.74997C7.76238 2.34992 6.62742 1.21497 5.22738 1.21497C3.82734 1.21497 2.69238 2.34992 2.69238 3.74997C2.69238 5.15001 3.82734 6.28497 5.22738 6.28497Z" fill="#4C4C4C"/>
</g>
</g>
</svg>
