<svg xmlns="http://www.w3.org/2000/svg" width="20" height="20" viewBox="0 0 20 20" fill="none">
  <path d="M9.99996 14.7916C10.3451 14.7916 10.625 14.5118 10.625 14.1666V9.16663C10.625 8.82145 10.3451 8.54163 9.99996 8.54163C9.65478 8.54163 9.37496 8.82145 9.37496 9.16663V14.1666C9.37496 14.5118 9.65478 14.7916 9.99996 14.7916Z" fill="#B9B9B9"/>
  <path d="M9.99996 5.83329C10.4602 5.83329 10.8333 6.20639 10.8333 6.66663C10.8333 7.12686 10.4602 7.49996 9.99996 7.49996C9.53972 7.49996 9.16663 7.12686 9.16663 6.66663C9.16663 6.20639 9.53972 5.83329 9.99996 5.83329Z" fill="#B9B9B9"/>
  <path fill-rule="evenodd" clip-rule="evenodd" d="M1.04163 9.99996C1.04163 5.05241 5.05241 1.04163 9.99996 1.04163C14.9475 1.04163 18.9583 5.05241 18.9583 9.99996C18.9583 14.9475 14.9475 18.9583 9.99996 18.9583C5.05241 18.9583 1.04163 14.9475 1.04163 9.99996ZM9.99996 2.29163C5.74276 2.29163 2.29163 5.74276 2.29163 9.99996C2.29163 14.2572 5.74276 17.7083 9.99996 17.7083C14.2572 17.7083 17.7083 14.2572 17.7083 9.99996C17.7083 5.74276 14.2572 2.29163 9.99996 2.29163Z" fill="#B9B9B9"/>
</svg>