<svg
      width="53"
      height="53"
      viewBox="0 0 53 53"
      fill="none"
      xmlns="http://www.w3.org/2000/svg"
    >
      <circle cx="26.5" cy="26.5" r="25.75" stroke="black" stroke-width="1.5" />
      <g clip-path="url(#clip0_12292_10080)">
        <path
          d="M28.2628 38.994C21.4464 38.994 21.3939 38.7113 20.5498 38.0756C20.102 37.7389 19.2572 37.5056 16.1713 37.3046C15.9474 37.29 15.7344 37.2041 15.5916 37.0309C15.5259 36.951 13.9839 34.7021 13.9839 31.1002C13.9839 27.5509 15.0876 25.9331 15.1348 25.8581C15.2021 25.7502 15.2958 25.6613 15.407 25.5996C15.5182 25.5379 15.6433 25.5056 15.7704 25.5056C18.3043 25.5056 21.8169 22.2712 24.1783 16.6252C24.5867 15.6487 24.671 15.0063 26.171 15.0063C27.0242 15.0063 27.9804 15.6172 28.4525 16.401C29.4212 18.0022 28.9292 21.4414 28.4743 23.2793C30.0212 23.2669 32.8213 23.2459 34.1537 23.2459C36.0069 23.2459 37.2335 24.351 37.2706 25.9665C37.283 26.4997 37.2129 27.1807 37.0588 27.5332C37.4668 27.9401 37.9929 28.5536 38.0158 29.3437C38.0443 30.3637 37.3764 31.1403 36.95 31.5858C37.0479 31.8825 37.2436 32.2758 37.2245 32.7461C37.1776 33.9026 36.2847 34.6477 35.7286 35.0366C35.7747 35.3531 35.8107 35.9501 35.7091 36.4117C35.3079 38.2541 32.606 38.994 28.2627 38.994L28.2628 38.994ZM16.5692 35.7836C19.2572 36.006 20.6941 36.3071 21.452 36.8775C22.0385 37.3193 21.9481 37.4944 28.2627 37.4944C30.1887 37.4944 33.9556 37.4141 34.2444 36.0919C34.3591 35.5631 33.8015 35.0434 33.7996 35.0393C33.6474 34.6635 33.8169 34.2225 34.1881 34.0601C34.1941 34.0571 35.6915 33.5209 35.7256 32.6839C35.7481 32.1488 35.3806 31.8274 35.3724 31.8139C35.1538 31.4749 35.2336 31.0099 35.5651 30.7789C35.5689 30.7759 36.539 30.1879 36.5154 29.3862C36.497 28.7494 35.6581 28.3013 35.6326 28.2863C35.4451 28.179 35.3086 27.9934 35.2659 27.7812C35.2239 27.5693 35.2711 27.3469 35.4027 27.1748C35.4027 27.1748 35.7841 26.5688 35.7702 26.0003C35.7429 24.7834 34.4341 24.7452 34.1532 24.7452C32.2614 24.7452 27.4025 24.7643 27.4025 24.7643C27.1404 24.7654 26.9135 24.6417 26.7725 24.432C26.6319 24.2224 26.6214 23.9622 26.7039 23.7237C27.4366 21.6135 27.8458 18.303 27.1663 17.172C26.966 16.8387 26.9203 16.5057 26.1703 16.5057C26.0664 16.5057 25.8189 16.5878 25.5609 17.2028C23.0548 23.199 19.3115 26.6674 16.2455 26.9802C15.9812 27.5832 15.4839 28.8327 15.4839 31.0999C15.4839 33.414 16.217 35.2043 16.5692 35.7836Z"
          fill="black"
        />
      </g>
      <defs>
        <clipPath id="clip0_12292_10080">
          <rect
            width="24"
            height="24"
            fill="white"
            transform="translate(14 15)"
          />
        </clipPath>
      </defs>
    </svg>