<svg width="32" height="32" viewBox="0 0 32 32" fill="none" xmlns="http://www.w3.org/2000/svg">
<g id="vuesax/bold/messages-3">
<g id="messages-3">
<path id="Vector" d="M20.7865 16.5333V21.96C20.7865 22.44 20.7332 22.8933 20.6132 23.3067C20.1198 25.2667 18.4932 26.4933 16.2532 26.4933H12.6265L8.59984 29.1733C7.99984 29.5867 7.19984 29.1467 7.19984 28.4267V26.4933C5.83984 26.4933 4.7065 26.04 3.91984 25.2533C3.11984 24.4533 2.6665 23.32 2.6665 21.96V16.5333C2.6665 14 4.23984 12.2533 6.6665 12.0267C6.83984 12.0133 7.01317 12 7.19984 12H16.2532C18.9732 12 20.7865 13.8133 20.7865 16.5333Z" fill="white"/>
<path id="Vector_2" d="M23.6665 20.7998C25.3598 20.7998 26.7865 20.2398 27.7732 19.2398C28.7732 18.2532 29.3332 16.8265 29.3332 15.1332V8.33317C29.3332 5.19984 26.7998 2.6665 23.6665 2.6665H12.3332C9.19984 2.6665 6.6665 5.19984 6.6665 8.33317V9.33317C6.6665 9.7065 6.95984 9.99984 7.33317 9.99984H16.2532C19.8665 9.99984 22.7865 12.9198 22.7865 16.5332V20.1332C22.7865 20.5065 23.0798 20.7998 23.4532 20.7998H23.6665Z" fill="white"/>
</g>
</g>
</svg>
