<svg xmlns="http://www.w3.org/2000/svg" width="18" height="18" viewBox="0 0 18 18" fill="none">
  <path d="M9 11.625C10.6575 11.625 12 10.2825 12 8.625V4.5C12 2.8425 10.6575 1.5 9 1.5C7.3425 1.5 6 2.8425 6 4.5V8.625C6 10.2825 7.3425 11.625 9 11.625Z" stroke="#939393" stroke-width="1.125" stroke-linecap="round" stroke-linejoin="round"/>
  <path d="M3.2627 7.2373V8.51231C3.2627 11.6773 5.8352 14.2498 9.0002 14.2498C12.1652 14.2498 14.7377 11.6773 14.7377 8.51231V7.2373" stroke="#939393" stroke-width="1.125" stroke-linecap="round" stroke-linejoin="round"/>
  <path d="M7.95752 4.82259C8.63252 4.57509 9.36752 4.57509 10.0425 4.82259" stroke="#939393" stroke-width="1.125" stroke-linecap="round" stroke-linejoin="round"/>
  <path d="M8.40039 6.41249C8.79789 6.30749 9.21039 6.30749 9.60789 6.41249" stroke="#939393" stroke-width="1.125" stroke-linecap="round" stroke-linejoin="round"/>
  <path d="M9 14.25V16.5" stroke="#939393" stroke-width="1.125" stroke-linecap="round" stroke-linejoin="round"/>
</svg>