<svg width="16" height="16" viewBox="0 0 16 16" fill="none" xmlns="http://www.w3.org/2000/svg">
<g clip-path="url(#clip0_4646_119)">
<path fill-rule="evenodd" clip-rule="evenodd" d="M8 1.83334C11.4058 1.83334 14.1667 4.59425 14.1667 8.00001C14.1667 8.27615 14.3905 8.50001 14.6667 8.50001C14.9428 8.50001 15.1667 8.27615 15.1667 8.00001C15.1667 4.04197 11.958 0.833344 8 0.833344C7.72386 0.833344 7.5 1.0572 7.5 1.33334C7.5 1.60949 7.72386 1.83334 8 1.83334Z" fill="#B9B9B9"/>
<path fill-rule="evenodd" clip-rule="evenodd" d="M8 5.50001C8.27614 5.50001 8.5 5.72387 8.5 6.00001V8.16668H10.6667C10.9428 8.16668 11.1667 8.39054 11.1667 8.66668C11.1667 8.94282 10.9428 9.16668 10.6667 9.16668H8C7.72386 9.16668 7.5 8.94282 7.5 8.66668V6.00001C7.5 5.72387 7.72386 5.50001 8 5.50001Z" fill="#B9B9B9"/>
<path opacity="0.5" fill-rule="evenodd" clip-rule="evenodd" d="M6.06639 1.59839C6.16584 1.85601 6.03762 2.14546 5.78 2.24491C5.68571 2.28131 5.59254 2.31996 5.50054 2.3608C5.24815 2.47284 4.95272 2.35907 4.84067 2.10668C4.72863 1.85429 4.8424 1.55886 5.09479 1.44682C5.20179 1.39931 5.31018 1.35435 5.41988 1.312C5.6775 1.21256 5.96695 1.34078 6.06639 1.59839ZM3.76515 2.82688C3.95559 3.02684 3.94787 3.34333 3.7479 3.53377C3.67479 3.6034 3.60338 3.67481 3.53375 3.74792C3.34331 3.94789 3.02682 3.95561 2.82685 3.76517C2.62689 3.57473 2.61916 3.25824 2.80961 3.05827C2.89045 2.97338 2.97336 2.89048 3.05825 2.80963C3.25822 2.61919 3.5747 2.62691 3.76515 2.82688ZM2.10666 4.8407C2.35905 4.95274 2.47282 5.24818 2.36077 5.50057C2.31993 5.59256 2.28128 5.68574 2.24488 5.78003C2.14544 6.03764 1.85598 6.16586 1.59837 6.06642C1.34075 5.96697 1.21253 5.67752 1.31198 5.41991C1.35432 5.31021 1.39929 5.20182 1.44679 5.09481C1.55884 4.84242 1.85427 4.72865 2.10666 4.8407ZM1.3474 7.33607C1.62346 7.34274 1.84185 7.57194 1.83518 7.848C1.83396 7.89852 1.83334 7.9492 1.83334 8.00003C1.83334 8.05087 1.83396 8.10155 1.83518 8.15207C1.84185 8.42813 1.62346 8.65733 1.3474 8.664C1.07134 8.67067 0.84214 8.45229 0.83547 8.17623C0.834055 8.11766 0.833344 8.05892 0.833344 8.00003C0.833344 7.94115 0.834055 7.88241 0.83547 7.82384C0.84214 7.54778 1.07134 7.3294 1.3474 7.33607ZM14.4017 9.93365C14.6593 10.0331 14.7875 10.3225 14.688 10.5802C14.6457 10.6899 14.6007 10.7983 14.5532 10.9053C14.4412 11.1576 14.1458 11.2714 13.8934 11.1594C13.641 11.0473 13.5272 10.7519 13.6392 10.4995C13.6801 10.4075 13.7187 10.3143 13.7551 10.22C13.8546 9.96243 14.144 9.83421 14.4017 9.93365ZM1.59837 9.93365C1.85598 9.83421 2.14544 9.96243 2.24488 10.22C2.28128 10.3143 2.31993 10.4075 2.36077 10.4995C2.47282 10.7519 2.35905 11.0473 2.10666 11.1594C1.85427 11.2714 1.55884 11.1576 1.44679 10.9053C1.39929 10.7983 1.35432 10.6899 1.31198 10.5802C1.21253 10.3225 1.34076 10.0331 1.59837 9.93365ZM13.1732 12.2349C13.3731 12.4253 13.3809 12.7418 13.1904 12.9418C13.1096 13.0267 13.0267 13.1096 12.9418 13.1904C12.7418 13.3809 12.4253 13.3732 12.2349 13.1732C12.0444 12.9732 12.0522 12.6567 12.2521 12.4663C12.3252 12.3967 12.3966 12.3253 12.4663 12.2521C12.6567 12.0522 12.9732 12.0445 13.1732 12.2349ZM2.82685 12.2349C3.02682 12.0445 3.34331 12.0522 3.53375 12.2521C3.60338 12.3253 3.67479 12.3967 3.7479 12.4663C3.94787 12.6567 3.95559 12.9732 3.76515 13.1732C3.5747 13.3732 3.25822 13.3809 3.05825 13.1904C2.97336 13.1096 2.89045 13.0267 2.80961 12.9418C2.61917 12.7418 2.62689 12.4253 2.82685 12.2349ZM4.84067 13.8934C4.95272 13.641 5.24815 13.5272 5.50054 13.6393C5.59254 13.6801 5.68571 13.7188 5.78 13.7552C6.03762 13.8546 6.16584 14.1441 6.06639 14.4017C5.96695 14.6593 5.6775 14.7875 5.41988 14.6881C5.31018 14.6457 5.20179 14.6008 5.09479 14.5533C4.8424 14.4412 4.72863 14.1458 4.84067 13.8934ZM11.1593 13.8934C11.2714 14.1458 11.1576 14.4412 10.9052 14.5533C10.7982 14.6008 10.6898 14.6457 10.5801 14.6881C10.3225 14.7875 10.0331 14.6593 9.93363 14.4017C9.83418 14.1441 9.9624 13.8546 10.22 13.7552C10.3143 13.7188 10.4075 13.6801 10.4995 13.6393C10.7519 13.5272 11.0473 13.641 11.1593 13.8934ZM7.33604 14.6526C7.34271 14.3766 7.57191 14.1582 7.84797 14.1649C7.89849 14.1661 7.94917 14.1667 8.00001 14.1667C8.05085 14.1667 8.10153 14.1661 8.15205 14.1649C8.42811 14.1582 8.65731 14.3766 8.66398 14.6526C8.67065 14.9287 8.45226 15.1579 8.1762 15.1646C8.11763 15.166 8.0589 15.1667 8.00001 15.1667C7.94112 15.1667 7.88239 15.166 7.82382 15.1646C7.54776 15.1579 7.32937 14.9287 7.33604 14.6526Z" fill="#B9B9B9"/>
</g>
<defs>
<clipPath id="clip0_4646_119">
<rect width="16" height="16" fill="white"/>
</clipPath>
</defs>
</svg>
