<svg width="20" height="21" viewBox="0 0 20 21" fill="none" xmlns="http://www.w3.org/2000/svg">
<path d="M10 15.291C10.3452 15.291 10.625 15.0112 10.625 14.666V9.66602C10.625 9.32084 10.3452 9.04102 10 9.04102C9.65482 9.04102 9.375 9.32084 9.375 9.66602V14.666C9.375 15.0112 9.65482 15.291 10 15.291Z" fill="#0065FF"/>
<path d="M10 6.33268C10.4602 6.33268 10.8333 6.70578 10.8333 7.16602C10.8333 7.62625 10.4602 7.99935 10 7.99935C9.53976 7.99935 9.16666 7.62625 9.16666 7.16602C9.16666 6.70578 9.53976 6.33268 10 6.33268Z" fill="#0065FF"/>
<path fill-rule="evenodd" clip-rule="evenodd" d="M1.04166 10.4993C1.04166 5.5518 5.05245 1.54102 10 1.54102C14.9475 1.54102 18.9583 5.5518 18.9583 10.4993C18.9583 15.4469 14.9475 19.4577 10 19.4577C5.05245 19.4577 1.04166 15.4469 1.04166 10.4993ZM10 2.79102C5.7428 2.79102 2.29166 6.24215 2.29166 10.4993C2.29166 14.7565 5.7428 18.2077 10 18.2077C14.2572 18.2077 17.7083 14.7565 17.7083 10.4993C17.7083 6.24215 14.2572 2.79102 10 2.79102Z" fill="#0065FF"/>
</svg>
