<svg width="20" height="20" viewBox="0 0 20 20" fill="none" xmlns="http://www.w3.org/2000/svg">
<rect width="20" height="20" fill="#E9E9E9"/>
<g id="Onboarding Questions Quiz Page">
<path d="M-301 -113C-301 -114.105 -300.105 -115 -299 -115H2097C2098.1 -115 2099 -114.105 2099 -113V592C2099 593.105 2098.1 594 2097 594H-299C-300.105 594 -301 593.105 -301 592V-113Z" fill="#ECECEC"/>
<g id="OO_01">
<g clipPath="url(#clip0_94_2241)">
<g id="Title">
<rect width="376" height="68" transform="translate(-213 -20)" fill="white"/>
<g id="Body">
<g id="Frame 427321194">
<g id="Navigation_menu">
<g id="Frame 427319834">
<g id="Loading">
<path id="Oval 3" d="M10 3.33337V5.00004C12.7614 5.00004 15 7.23862 15 10C15 12.7615 12.7614 15 10 15C7.23857 15 5 12.7615 5 10C5 9.13364 5.21992 8.30109 5.63312 7.56266L4.17866 6.74882C3.6272 7.73435 3.33333 8.84683 3.33333 10C3.33333 13.6819 6.3181 16.6667 10 16.6667C13.6819 16.6667 16.6667 13.6819 16.6667 10C16.6667 6.31814 13.6819 3.33337 10 3.33337Z" fill="#AFAFAF"/>
</g>
</g>
</g>
</g>
</g>
</g>
</g>
</g>
<path d="M-299 -114H2097V-116H-299V-114ZM2098 -113V592H2100V-113H2098ZM2097 593H-299V595H2097V593ZM-300 592V-113H-302V592H-300ZM-299 593C-299.552 593 -300 592.552 -300 592H-302C-302 593.657 -300.657 595 -299 595V593ZM2098 592C2098 592.552 2097.55 593 2097 593V595C2098.66 595 2100 593.657 2100 592H2098ZM2097 -114C2097.55 -114 2098 -113.552 2098 -113H2100C2100 -114.657 2098.66 -116 2097 -116V-114ZM-299 -116C-300.657 -116 -302 -114.657 -302 -113H-300C-300 -113.552 -299.552 -114 -299 -114V-116Z" fill="#AFAFAF"/>
</g>
<defs>
<clipPath id="clip0_94_2241">
<rect x="-213" y="-20" width="376" height="556" rx="12" fill="white"/>
</clipPath>
</defs>
</svg>
