<svg width="20" height="21" viewBox="0 0 20 21" fill="none" xmlns="http://www.w3.org/2000/svg">
<path fill-rule="evenodd" clip-rule="evenodd" d="M10 2.79102C5.7428 2.79102 2.29166 6.24215 2.29166 10.4993C2.29166 14.7565 5.7428 18.2077 10 18.2077C14.2572 18.2077 17.7083 14.7565 17.7083 10.4993C17.7083 6.24215 14.2572 2.79102 10 2.79102ZM1.04166 10.4993C1.04166 5.5518 5.05245 1.54102 10 1.54102C14.9475 1.54102 18.9583 5.5518 18.9583 10.4993C18.9583 15.4469 14.9475 19.4577 10 19.4577C5.05245 19.4577 1.04166 15.4469 1.04166 10.4993ZM10 6.95768C9.48223 6.95768 9.0625 7.37742 9.0625 7.89518C9.0625 8.24036 8.78268 8.52018 8.4375 8.52018C8.09232 8.52018 7.8125 8.24036 7.8125 7.89518C7.8125 6.68706 8.79187 5.70768 10 5.70768C11.2081 5.70768 12.1875 6.68706 12.1875 7.89518C12.1875 8.69796 11.7547 9.39899 11.1127 9.77882C10.9488 9.87582 10.8134 9.98174 10.7252 10.0857C10.6396 10.1865 10.625 10.2523 10.625 10.291V11.3327C10.625 11.6779 10.3452 11.9577 10 11.9577C9.65482 11.9577 9.375 11.6779 9.375 11.3327V10.291C9.375 9.86944 9.55956 9.52738 9.77216 9.27686C9.98218 9.02937 10.2441 8.84035 10.4762 8.70301C10.7537 8.53884 10.9375 8.23814 10.9375 7.89518C10.9375 7.37742 10.5178 6.95768 10 6.95768ZM10 14.666C10.4602 14.666 10.8333 14.2929 10.8333 13.8327C10.8333 13.3724 10.4602 12.9993 10 12.9993C9.53976 12.9993 9.16666 13.3724 9.16666 13.8327C9.16666 14.2929 9.53976 14.666 10 14.666Z" fill="#FF8744"/>
</svg>
