<svg width="20" height="20" viewBox="0 0 20 20" fill="none" xmlns="http://www.w3.org/2000/svg">
<path fill-rule="evenodd" clip-rule="evenodd" d="M18.3332 10.0003C18.3332 14.6027 14.6022 18.3337 9.99984 18.3337C5.39746 18.3337 1.6665 14.6027 1.6665 10.0003C1.6665 5.39795 5.39746 1.66699 9.99984 1.66699C14.6022 1.66699 18.3332 5.39795 18.3332 10.0003ZM9.99984 6.45866C9.48207 6.45866 9.06234 6.87839 9.06234 7.39616C9.06234 7.74134 8.78252 8.02116 8.43734 8.02116C8.09216 8.02116 7.81234 7.74134 7.81234 7.39616C7.81234 6.18804 8.79171 5.20866 9.99984 5.20866C11.208 5.20866 12.1873 6.18804 12.1873 7.39616C12.1873 7.98852 11.9511 8.52698 11.569 8.92029C11.4921 8.99944 11.4187 9.07272 11.3488 9.14263C11.1689 9.32233 11.0113 9.47977 10.8731 9.65741C10.6906 9.89193 10.6248 10.0643 10.6248 10.2087V10.8337C10.6248 11.1788 10.345 11.4587 9.99984 11.4587C9.65466 11.4587 9.37484 11.1788 9.37484 10.8337V10.2087C9.37484 9.66267 9.62901 9.22069 9.88664 8.88967C10.0773 8.64474 10.3169 8.40561 10.5113 8.21155C10.57 8.153 10.6245 8.09856 10.6724 8.0493C10.837 7.87985 10.9373 7.65036 10.9373 7.39616C10.9373 6.87839 10.5176 6.45866 9.99984 6.45866ZM9.99984 14.167C10.4601 14.167 10.8332 13.7939 10.8332 13.3337C10.8332 12.8734 10.4601 12.5003 9.99984 12.5003C9.5396 12.5003 9.1665 12.8734 9.1665 13.3337C9.1665 13.7939 9.5396 14.167 9.99984 14.167Z" fill="#EF9400"/>
</svg>
    