<svg xmlns="http://www.w3.org/2000/svg" width="20" height="20" viewBox="0 0 20 20" fill="none">
  <path fill-rule="evenodd" clip-rule="evenodd" d="M15.1198 3.0257C14.1448 3.19914 12.8304 3.63552 10.9856 4.25043L6.80955 5.64245C5.3262 6.1369 4.25179 6.49557 3.49293 6.81834C2.69953 7.15578 2.4173 7.391 2.32564 7.54867C2.0433 8.03432 2.0433 8.63413 2.32564 9.11979C2.4173 9.27746 2.69953 9.51268 3.49292 9.85012C4.25179 10.1729 5.32619 10.5316 6.80955 11.026C6.83297 11.0338 6.8561 11.0415 6.87894 11.0491C7.1953 11.1543 7.45666 11.2413 7.68502 11.3607L12.1212 6.97343C12.3726 6.72479 12.778 6.72703 13.0266 6.97845C13.2753 7.22987 13.273 7.63525 13.0216 7.88389L8.60498 12.2518C8.74268 12.495 8.83588 12.7752 8.95094 13.1211C8.95854 13.1439 8.96623 13.1671 8.97404 13.1905C9.46849 14.6739 9.82716 15.7483 10.1499 16.5071C10.4874 17.3005 10.7226 17.5827 10.8803 17.6744C11.3659 17.9567 11.9657 17.9567 12.4514 17.6744C12.6091 17.5827 12.8443 17.3005 13.1817 16.5071C13.5045 15.7483 13.8631 14.6739 14.3576 13.1905L15.7496 9.01444C16.3645 7.1697 16.8009 5.85523 16.9743 4.88025C17.1486 3.90062 17.0154 3.4845 16.7655 3.23455C16.5155 2.98461 16.0994 2.85143 15.1198 3.0257ZM14.8955 1.76498C15.9807 1.57194 16.958 1.61618 17.6709 2.3291C18.3839 3.04201 18.4281 4.01936 18.2351 5.10452C18.0432 6.18313 17.5753 7.58679 16.9829 9.36391L15.5621 13.6262C15.0801 15.0724 14.7055 16.1961 14.3601 17.0083C14.0269 17.7917 13.6569 18.4547 13.095 18.7814C12.2114 19.2951 11.1202 19.2951 10.2367 18.7814C9.67473 18.4547 9.30476 17.7917 8.97157 17.0083C8.62614 16.1961 8.25158 15.0724 7.76952 13.6263L7.75924 13.5954C7.59036 13.0888 7.53888 12.9513 7.46595 12.8424C7.38432 12.7205 7.27958 12.6157 7.15765 12.5341C7.04871 12.4612 6.91128 12.4097 6.40462 12.2408L6.37375 12.2305C4.92759 11.7485 3.8039 11.3739 2.99175 11.0285C2.20834 10.6953 1.5453 10.3253 1.2186 9.76336C0.704963 8.87983 0.704964 7.78862 1.21861 6.90509C1.5453 6.34314 2.20834 5.97318 2.99175 5.63998C3.80391 5.29455 4.92762 4.91998 6.3738 4.43793L10.6362 3.01714C12.4133 2.42475 13.8169 1.95685 14.8955 1.76498Z" fill="#9035FF"/>
</svg>