<svg width="22" height="22" viewBox="0 0 22 22" fill="none" xmlns="http://www.w3.org/2000/svg">
<g id="vuesax/bold/send">
<g id="send">
<path id="Vector" d="M16.5656 7.80059L8.71896 3.87726C3.44813 1.23726 1.2848 3.40059 3.9248 8.67142L4.7223 10.2664C4.95146 10.7339 4.95146 11.2748 4.7223 11.7423L3.9248 13.3281C1.2848 18.5989 3.43896 20.7623 8.71896 18.1223L16.5656 14.1989C20.0856 12.4389 20.0856 9.56059 16.5656 7.80059ZM13.6048 11.6873H8.65479C8.27896 11.6873 7.96729 11.3756 7.96729 10.9998C7.96729 10.6239 8.27896 10.3123 8.65479 10.3123H13.6048C13.9806 10.3123 14.2923 10.6239 14.2923 10.9998C14.2923 11.3756 13.9806 11.6873 13.6048 11.6873Z" fill="white"/>
</g>
</g>
</svg>
