<svg xmlns="http://www.w3.org/2000/svg" width="20" height="20" viewBox="0 0 20 20" fill="none">
  <path fill-rule="evenodd" clip-rule="evenodd" d="M9.99996 2.29167C5.74276 2.29167 2.29163 5.74281 2.29163 10C2.29163 14.2572 5.74276 17.7083 9.99996 17.7083C14.2572 17.7083 17.7083 14.2572 17.7083 10C17.7083 5.74281 14.2572 2.29167 9.99996 2.29167ZM1.04163 10C1.04163 5.05245 5.05241 1.04167 9.99996 1.04167C14.9475 1.04167 18.9583 5.05245 18.9583 10C18.9583 14.9476 14.9475 18.9583 9.99996 18.9583C5.05241 18.9583 1.04163 14.9476 1.04163 10ZM6.99785 12.9612C7.2034 12.6839 7.59483 12.6257 7.87214 12.8312C8.47909 13.2811 9.21171 13.5417 9.99996 13.5417C10.7882 13.5417 11.5208 13.2811 12.1278 12.8312C12.4051 12.6257 12.7965 12.6839 13.0021 12.9612C13.2076 13.2385 13.1494 13.6299 12.8721 13.8354C12.0618 14.4361 11.0708 14.7917 9.99996 14.7917C8.92915 14.7917 7.93813 14.4361 7.12778 13.8354C6.85048 13.6299 6.79231 13.2385 6.99785 12.9612Z" fill="#939393"/>
  <path d="M13.3333 8.75001C13.3333 9.44036 12.9602 10 12.5 10C12.0397 10 11.6666 9.44036 11.6666 8.75001C11.6666 8.05965 12.0397 7.50001 12.5 7.50001C12.9602 7.50001 13.3333 8.05965 13.3333 8.75001Z" fill="#939393"/>
  <path d="M8.33329 8.75001C8.33329 9.44036 7.9602 10 7.49996 10C7.03972 10 6.66663 9.44036 6.66663 8.75001C6.66663 8.05965 7.03972 7.50001 7.49996 7.50001C7.9602 7.50001 8.33329 8.05965 8.33329 8.75001Z" fill="#939393"/>
</svg>