<svg xmlns="http://www.w3.org/2000/svg" width="20" height="20" viewBox="0 0 20 20" fill="none">
  <path fill-rule="evenodd" clip-rule="evenodd" d="M7.40465 2.80218C9.85691 0.454834 13.822 0.454834 16.2742 2.80218C18.7419 5.16429 18.7419 9.00582 16.2742 11.3679L9.65086 17.7079C7.90914 19.3751 5.0961 19.3751 3.35438 17.7079C1.59724 16.026 1.59724 13.2872 3.35438 11.6052L9.88246 5.35643C10.9136 4.36937 12.5747 4.36938 13.6058 5.35643C14.6524 6.35825 14.6524 7.99431 13.6058 8.99612L7.0301 15.2905C6.78074 15.5292 6.38511 15.5206 6.14643 15.2712C5.90774 15.0219 5.91639 14.6262 6.16574 14.3875L12.7415 8.09313C13.2739 7.58351 13.2739 6.76904 12.7415 6.25942C12.1937 5.73505 11.2946 5.73505 10.7468 6.25942L4.21873 12.5082C2.97579 13.698 2.97579 15.6152 4.21873 16.8049C5.47709 18.0095 7.52814 18.0095 8.7865 16.8049L15.4099 10.4649C17.3634 8.59502 17.3634 5.57509 15.4099 3.70517C13.441 1.8205 10.2379 1.8205 8.269 3.70517L2.93218 8.81367C2.68283 9.05236 2.28719 9.04371 2.04851 8.79436C1.80982 8.545 1.81847 8.14937 2.06782 7.91068L7.40465 2.80218Z" fill="#939393"/>
</svg>