<svg xmlns="http://www.w3.org/2000/svg" width="16" height="16" viewBox="0 0 16 16" fill="none">
  <g clip-path="url(#clip0_6279_220)">
    <path fill-rule="evenodd" clip-rule="evenodd" d="M8 1.83337C11.4058 1.83337 14.1667 4.59429 14.1667 8.00004C14.1667 8.27618 14.3905 8.50004 14.6667 8.50004C14.9428 8.50004 15.1667 8.27618 15.1667 8.00004C15.1667 4.042 11.958 0.833374 8 0.833374C7.72386 0.833374 7.5 1.05723 7.5 1.33337C7.5 1.60952 7.72386 1.83337 8 1.83337Z" fill="#B9B9B9"/>
    <path fill-rule="evenodd" clip-rule="evenodd" d="M8 5.50004C8.27614 5.50004 8.5 5.7239 8.5 6.00004V8.16671H10.6667C10.9428 8.16671 11.1667 8.39057 11.1667 8.66671C11.1667 8.94285 10.9428 9.16671 10.6667 9.16671H8C7.72386 9.16671 7.5 8.94285 7.5 8.66671V6.00004C7.5 5.7239 7.72386 5.50004 8 5.50004Z" fill="#B9B9B9"/>
    <path opacity="0.5" fill-rule="evenodd" clip-rule="evenodd" d="M6.06642 1.59839C6.16587 1.85601 6.03765 2.14546 5.78003 2.24491C5.68574 2.28131 5.59257 2.31996 5.50057 2.3608C5.24818 2.47284 4.95275 2.35907 4.8407 2.10668C4.72866 1.85429 4.84243 1.55886 5.09482 1.44682C5.20182 1.39931 5.31021 1.35435 5.41991 1.312C5.67753 1.21256 5.96698 1.34078 6.06642 1.59839ZM3.76518 2.82688C3.95562 3.02684 3.9479 3.34333 3.74793 3.53377C3.67482 3.6034 3.60341 3.67481 3.53378 3.74792C3.34334 3.94789 3.02685 3.95561 2.82688 3.76517C2.62692 3.57473 2.61919 3.25824 2.80964 3.05827C2.89048 2.97338 2.97339 2.89048 3.05828 2.80963C3.25825 2.61919 3.57473 2.62691 3.76518 2.82688ZM2.10669 4.8407C2.35908 4.95274 2.47285 5.24818 2.3608 5.50057C2.31996 5.59256 2.28131 5.68574 2.24491 5.78003C2.14547 6.03764 1.85601 6.16586 1.5984 6.06642C1.34079 5.96697 1.21256 5.67752 1.31201 5.41991C1.35435 5.31021 1.39932 5.20182 1.44682 5.09481C1.55887 4.84242 1.8543 4.72865 2.10669 4.8407ZM1.34743 7.33607C1.62349 7.34274 1.84188 7.57194 1.83521 7.848C1.83399 7.89852 1.83337 7.9492 1.83337 8.00003C1.83337 8.05087 1.83399 8.10155 1.83521 8.15207C1.84188 8.42813 1.62349 8.65733 1.34743 8.664C1.07137 8.67067 0.84217 8.45229 0.8355 8.17623C0.834085 8.11766 0.833374 8.05892 0.833374 8.00003C0.833374 7.94115 0.834085 7.88241 0.8355 7.82384C0.84217 7.54778 1.07137 7.3294 1.34743 7.33607ZM14.4017 9.93365C14.6593 10.0331 14.7875 10.3225 14.6881 10.5802C14.6457 10.6899 14.6008 10.7983 14.5533 10.9053C14.4412 11.1576 14.1458 11.2714 13.8934 11.1594C13.641 11.0473 13.5272 10.7519 13.6393 10.4995C13.6801 10.4075 13.7188 10.3143 13.7552 10.22C13.8546 9.96243 14.1441 9.83421 14.4017 9.93365ZM1.5984 9.93365C1.85602 9.83421 2.14547 9.96243 2.24491 10.22C2.28131 10.3143 2.31996 10.4075 2.3608 10.4995C2.47285 10.7519 2.35908 11.0473 2.10669 11.1594C1.8543 11.2714 1.55887 11.1576 1.44682 10.9053C1.39932 10.7983 1.35435 10.6899 1.31201 10.5802C1.21256 10.3225 1.34079 10.0331 1.5984 9.93365ZM13.1732 12.2349C13.3732 12.4253 13.3809 12.7418 13.1904 12.9418C13.1096 13.0267 13.0267 13.1096 12.9418 13.1904C12.7418 13.3809 12.4253 13.3732 12.2349 13.1732C12.0445 12.9732 12.0522 12.6567 12.2522 12.4663C12.3253 12.3967 12.3967 12.3253 12.4663 12.2521C12.6567 12.0522 12.9732 12.0445 13.1732 12.2349ZM2.82688 12.2349C3.02685 12.0445 3.34334 12.0522 3.53378 12.2521C3.60341 12.3253 3.67482 12.3967 3.74793 12.4663C3.9479 12.6567 3.95562 12.9732 3.76518 13.1732C3.57474 13.3732 3.25825 13.3809 3.05828 13.1904C2.97339 13.1096 2.89048 13.0267 2.80964 12.9418C2.6192 12.7418 2.62692 12.4253 2.82688 12.2349ZM4.84071 13.8934C4.95275 13.641 5.24818 13.5272 5.50057 13.6393C5.59257 13.6801 5.68574 13.7188 5.78003 13.7552C6.03765 13.8546 6.16587 14.1441 6.06643 14.4017C5.96698 14.6593 5.67753 14.7875 5.41991 14.6881C5.31021 14.6457 5.20182 14.6008 5.09482 14.5533C4.84243 14.4412 4.72866 14.1458 4.84071 13.8934ZM11.1594 13.8934C11.2714 14.1458 11.1577 14.4412 10.9053 14.5533C10.7983 14.6008 10.6899 14.6457 10.5802 14.6881C10.3226 14.7875 10.0331 14.6593 9.93366 14.4017C9.83421 14.1441 9.96243 13.8546 10.22 13.7552C10.3143 13.7188 10.4075 13.6801 10.4995 13.6393C10.7519 13.5272 11.0473 13.641 11.1594 13.8934ZM7.33607 14.6526C7.34274 14.3766 7.57194 14.1582 7.848 14.1649C7.89852 14.1661 7.94921 14.1667 8.00004 14.1667C8.05088 14.1667 8.10156 14.1661 8.15208 14.1649C8.42814 14.1582 8.65734 14.3766 8.66401 14.6526C8.67068 14.9287 8.45229 15.1579 8.17623 15.1646C8.11766 15.166 8.05893 15.1667 8.00004 15.1667C7.94115 15.1667 7.88242 15.166 7.82385 15.1646C7.54779 15.1579 7.3294 14.9287 7.33607 14.6526Z" fill="#B9B9B9"/>
  </g>
  <defs>
    <clipPath id="clip0_6279_220">
      <rect width="16" height="16" fill="white"/>
    </clipPath>
  </defs>
</svg>