<svg xmlns="http://www.w3.org/2000/svg" width="24" height="24" viewBox="0 0 24 24" fill="none">
  <path opacity="0.24" d="M12 22C17.5228 22 22 17.5228 22 12C22 6.47715 17.5228 2 12 2C6.47715 2 2 6.47715 2 12C2 17.5228 6.47715 22 12 22Z" fill="#098849"/>
  <path d="M10.5795 15.5796C10.3795 15.5796 10.1895 15.4996 10.0495 15.3596L7.21945 12.5296C6.92945 12.2396 6.92945 11.7596 7.21945 11.4696C7.50945 11.1796 7.98945 11.1796 8.27945 11.4696L10.5795 13.7696L15.7195 8.62961C16.0095 8.33961 16.4895 8.33961 16.7795 8.62961C17.0695 8.91961 17.0695 9.39961 16.7795 9.68961L11.1095 15.3596C10.9695 15.4996 10.7795 15.5796 10.5795 15.5796Z" fill="#098849"/>
</svg>