<svg width="20" height="21" viewBox="0 0 20 21" fill="none" xmlns="http://www.w3.org/2000/svg">
<path d="M13.3586 8.85796C13.6027 8.61388 13.6027 8.21815 13.3586 7.97407C13.1145 7.73 12.7188 7.73 12.4747 7.97407L8.75 11.6988L7.52527 10.4741C7.2812 10.23 6.88547 10.23 6.64139 10.4741C6.39731 10.7182 6.39731 11.1139 6.64139 11.358L8.30806 13.0246C8.55213 13.2687 8.94786 13.2687 9.19194 13.0246L13.3586 8.85796Z" fill="#098849"/>
<path fill-rule="evenodd" clip-rule="evenodd" d="M10 1.54102C5.05245 1.54102 1.04166 5.5518 1.04166 10.4993C1.04166 15.4469 5.05245 19.4577 10 19.4577C14.9475 19.4577 18.9583 15.4469 18.9583 10.4993C18.9583 5.5518 14.9475 1.54102 10 1.54102ZM2.29166 10.4993C2.29166 6.24215 5.7428 2.79102 10 2.79102C14.2572 2.79102 17.7083 6.24215 17.7083 10.4993C17.7083 14.7565 14.2572 18.2077 10 18.2077C5.7428 18.2077 2.29166 14.7565 2.29166 10.4993Z" fill="#098849"/>
</svg>
