<svg width="20" height="20" viewBox="0 0 20 20" fill="none" xmlns="http://www.w3.org/2000/svg">
<path fill-rule="evenodd" clip-rule="evenodd" d="M18.3332 10.0003C18.3332 14.6027 14.6022 18.3337 9.99984 18.3337C5.39746 18.3337 1.6665 14.6027 1.6665 10.0003C1.6665 5.39795 5.39746 1.66699 9.99984 1.66699C14.6022 1.66699 18.3332 5.39795 18.3332 10.0003ZM13.3584 7.47505C13.6025 7.71913 13.6025 8.11486 13.3584 8.35893L9.19178 12.5256C8.9477 12.7697 8.55197 12.7697 8.3079 12.5256L6.64123 10.8589C6.39715 10.6149 6.39715 10.2191 6.64123 9.97505C6.88531 9.73097 7.28103 9.73097 7.52511 9.97505L8.74984 11.1998L10.6122 9.33741L12.4746 7.47505C12.7186 7.23097 13.1144 7.23097 13.3584 7.47505Z" fill="#008000"/>
</svg>
