<svg xmlns="http://www.w3.org/2000/svg" width="80" height="80" viewBox="0 0 80 80" fill="none">
<g clip-path="url(#clip0_6214_846)">
<path d="M40 80C62.0914 80 80 62.0914 80 40C80 17.9086 62.0914 0 40 0C17.9086 0 0 17.9086 0 40C0 62.0914 17.9086 80 40 80Z" fill="#FFA40B"/>
<path d="M46.2862 79.4767C46.4566 79.4573 46.6269 79.4368 46.797 79.4152C48.1113 79.1881 49.4135 78.8955 50.6985 78.5383C51.9843 78.1834 53.2516 77.7644 54.4955 77.2829C55.7373 76.7994 56.9542 76.2541 58.1416 75.649C59.33 75.0437 60.4873 74.3793 61.6093 73.6583C62.7315 72.9386 63.8169 72.1633 64.8616 71.3352C65.9071 70.5059 66.9104 69.6248 67.8678 68.6952C68.8247 67.7659 69.7346 66.7893 70.5939 65.769C71.4527 64.7485 72.2598 63.6856 73.0124 62.5844C73.7663 61.4836 74.4646 60.3458 75.1047 59.1752C75.7449 58.005 76.3261 56.8035 76.8462 55.5752C77.2966 54.4919 77.699 53.3893 78.0524 52.2706L61.1601 35.3783C60.8986 35.286 60.677 35.1937 60.277 35.0952C59.0709 34.7998 57.3847 34.5352 55.6493 34.2921L54.357 34.1075L40.1262 19.8798C39.957 20.0952 39.797 20.2829 39.5785 20.6306C38.9232 21.6829 38.1509 23.2029 37.3847 24.7721C36.6216 26.3414 35.8586 27.9629 35.1693 29.3014C34.8615 29.9092 34.5279 30.5036 34.1693 31.0829C33.8493 31.5906 33.6216 31.9998 33.0339 32.4152C32.4493 32.8337 31.9816 32.9198 31.3939 33.0614C30.8093 33.1937 30.1324 33.3106 29.3878 33.4183C27.8924 33.6367 26.1047 33.8306 24.3693 34.0429C22.6309 34.2583 20.9385 34.4952 19.7293 34.7721C19.3293 34.8644 19.1047 34.9537 18.8401 35.0429C18.9939 35.2737 19.1232 35.4798 19.3878 35.7937C19.8801 36.3752 20.5262 37.0552 21.2432 37.7691L27.9262 44.4521C28.197 44.7875 28.4401 45.1167 28.6032 45.6429C28.8216 46.326 28.7632 46.7937 28.7139 47.3906C28.6504 48.066 28.558 48.7384 28.437 49.406C28.1816 50.889 27.8093 52.6429 27.477 54.3567C27.1584 55.8869 26.912 57.4311 26.7385 58.9844C26.7016 59.3937 26.7139 59.6306 26.7201 59.9075L46.2862 79.4767Z" fill="#FF7712"/>
<path d="M40.1203 19.8685C40.2846 20.0897 40.4424 20.2779 40.6527 20.6305C41.2934 21.6914 42.0427 23.2244 42.782 24.8052C43.5214 26.3889 44.2541 28.0234 44.9245 29.3771C45.2596 30.0494 45.5751 30.653 45.8906 31.167C46.2027 31.681 46.4294 32.0933 47.0078 32.5207C47.5861 32.948 48.0495 33.0406 48.6344 33.19C49.2193 33.3364 49.8896 33.4589 50.6355 33.5814C52.1274 33.8235 53.9117 34.0447 55.6434 34.2838C57.3784 34.5258 59.0641 34.7918 60.2701 35.0846C60.671 35.1833 60.8944 35.2758 61.1573 35.3684C60.9963 35.5955 60.8648 35.8017 60.5987 36.1095C59.7805 37.0448 58.5515 38.2311 57.27 39.4174C55.9884 40.6097 54.6576 41.811 53.5765 42.8629C53.0343 43.3888 52.5578 43.8789 52.1635 44.3331C51.7725 44.7873 51.4472 45.1309 51.2204 45.8122C50.9904 46.4906 51.0463 46.9596 51.0857 47.5602C51.1252 48.1579 51.2139 48.8333 51.3289 49.5803C51.5589 51.0685 51.9006 52.8285 52.2062 54.5467C52.5118 56.2649 52.7813 57.9473 52.8733 59.1844C52.9029 59.5908 52.8832 59.833 52.8733 60.1109C52.6104 60.0303 52.3705 59.9673 51.9926 59.8089C50.8524 59.3248 49.3409 58.5239 47.8129 57.6783C46.2816 56.8296 44.724 55.9395 43.3833 55.2372C42.7859 54.9175 42.173 54.6223 41.5464 54.3526C40.9911 54.1226 40.5639 53.9194 39.8443 53.9135C39.1247 53.9135 38.6942 54.1045 38.1356 54.3257C37.577 54.5498 36.9592 54.8427 36.2856 55.1803C34.9383 55.8586 33.361 56.7281 31.8166 57.5499C30.2722 58.3716 28.7541 59.1458 27.604 59.6119C27.2228 59.7673 26.9862 59.8239 26.7168 59.9016C26.7135 59.6237 26.697 59.3818 26.7332 58.9754C26.8449 57.7413 27.1406 56.062 27.4758 54.3497C27.8077 52.6375 28.179 50.8831 28.432 49.3979C28.5528 48.7291 28.6449 48.0565 28.708 47.3811C28.7573 46.7835 28.8198 46.3141 28.6029 45.6298C28.386 44.9455 28.0673 44.5991 27.6828 44.1359C27.2428 43.6213 26.7791 43.1237 26.2928 42.6447C25.2315 41.575 23.9171 40.3528 22.6553 39.1426C21.5086 38.0687 20.4176 36.9469 19.3857 35.7808C19.1195 35.4671 18.9914 35.2609 18.8369 35.0308C19.0998 34.9412 19.3265 34.8515 19.7241 34.7589C20.9367 34.481 22.629 34.2448 24.3672 34.0326C26.1023 33.8205 27.8898 33.6294 29.385 33.4113C30.1342 33.3037 30.8078 33.187 31.3927 33.0496C31.9776 32.9121 32.4442 32.8256 33.0291 32.4072C33.6141 31.9889 33.8506 31.5794 34.1694 31.0714C34.4914 30.5634 34.8167 29.9658 35.1618 29.2964C35.8518 27.9547 36.6142 26.3321 37.3798 24.7603C38.0438 23.3519 38.7762 21.971 39.5748 20.6216C39.7917 20.272 39.9495 20.0867 40.1203 19.8685Z" fill="white"/>
</g>
<defs>
<clipPath id="clip0_6214_846">
<rect width="80" height="80" fill="white"/>
</clipPath>
</defs>
</svg>