<svg xmlns="http://www.w3.org/2000/svg" width="49" height="48" viewBox="0 0 49 48" fill="none">
<g clip-path="url(#clip0_6214_857)">
<path d="M24.5 48C37.7548 48 48.5 37.2548 48.5 24C48.5 10.7452 37.7548 0 24.5 0C11.2452 0 0.5 10.7452 0.5 24C0.5 37.2548 11.2452 48 24.5 48Z" fill="#B35F30"/>
<path d="M28.2716 47.686C28.3739 47.6744 28.476 47.6621 28.5781 47.6491C29.3667 47.5129 30.148 47.3373 30.919 47.123C31.6905 46.91 32.4508 46.6586 33.1972 46.3697C33.9423 46.0796 34.6724 45.7524 35.3849 45.3894C36.0979 45.0262 36.7923 44.6276 37.4655 44.195C38.1388 43.7632 38.7901 43.298 39.4169 42.8011C40.0442 42.3035 40.6461 41.7749 41.2206 41.2171C41.7947 40.6595 42.3406 40.0736 42.8563 39.4614C43.3715 38.8491 43.8558 38.2114 44.3073 37.5507C44.7597 36.8902 45.1786 36.2075 45.5627 35.5051C45.9468 34.803 46.2956 34.0821 46.6077 33.3451C46.8778 32.6951 47.1193 32.0336 47.3313 31.3623L37.196 21.227C37.039 21.1716 36.9061 21.1162 36.6661 21.0571C35.9424 20.8799 34.9307 20.7211 33.8895 20.5753L33.1141 20.4645L24.5756 11.9279C24.4741 12.0571 24.3781 12.1697 24.247 12.3783C23.8538 13.0097 23.3904 13.9217 22.9307 14.8633C22.4729 15.8048 22.015 16.7777 21.6015 17.5808C21.4168 17.9455 21.2166 18.3021 21.0015 18.6497C20.8095 18.9543 20.6729 19.1999 20.3203 19.4491C19.9695 19.7002 19.6889 19.7519 19.3363 19.8368C18.9855 19.9162 18.5793 19.9863 18.1326 20.051C17.2353 20.182 16.1627 20.2983 15.1215 20.4257C14.0784 20.555 13.063 20.6971 12.3375 20.8633C12.0975 20.9187 11.9627 20.9722 11.804 21.0257C11.8963 21.1642 11.9738 21.2879 12.1326 21.4762C12.428 21.8251 12.8156 22.2331 13.2458 22.6614L17.2556 26.6713C17.4181 26.8725 17.564 27.07 17.6618 27.3857C17.7929 27.7956 17.7578 28.0762 17.7283 28.4343C17.6901 28.8396 17.6347 29.2431 17.5621 29.6436C17.4089 30.5334 17.1855 31.5857 16.9861 32.614C16.7949 33.5321 16.6471 34.4587 16.543 35.3907C16.5209 35.6362 16.5283 35.7783 16.532 35.9445L28.2716 47.686Z" fill="#FF9B64"/>
<path d="M24.5723 11.9211C24.6709 12.0538 24.7655 12.1668 24.8917 12.3783C25.2762 13.0148 25.7257 13.9346 26.1693 14.8831C26.6129 15.8334 27.0526 16.814 27.4548 17.6262C27.6559 18.0296 27.8452 18.3918 28.0344 18.7002C28.2217 19.0086 28.3578 19.256 28.7048 19.5124C29.0518 19.7688 29.3298 19.8244 29.6807 19.914C30.0317 20.0019 30.4339 20.0753 30.8814 20.1488C31.7765 20.2941 32.8471 20.4268 33.8861 20.5703C34.9271 20.7155 35.9386 20.8751 36.6622 21.0508C36.9027 21.1099 37.0367 21.1655 37.1945 21.2211C37.0979 21.3573 37.019 21.481 36.8593 21.6657C36.3684 22.2269 35.631 22.9386 34.8621 23.6504C34.0932 24.3658 33.2947 25.0866 32.646 25.7177C32.3207 26.0333 32.0348 26.3273 31.7982 26.5998C31.5636 26.8724 31.3684 27.0785 31.2324 27.4873C31.0943 27.8943 31.1279 28.1757 31.1515 28.5361C31.1752 28.8947 31.2284 29.3 31.2974 29.7482C31.4354 30.6411 31.6405 31.6971 31.8238 32.728C32.0072 33.759 32.1689 34.7684 32.2241 35.5106C32.2418 35.7545 32.23 35.8998 32.2241 36.0666C32.0664 36.0182 31.9224 35.9804 31.6957 35.8853C31.0115 35.5949 30.1046 35.1144 29.1878 34.607C28.2691 34.0978 27.3345 33.5637 26.5301 33.1423C26.1717 32.9505 25.8039 32.7734 25.428 32.6116C25.0948 32.4735 24.8385 32.3517 24.4067 32.3481C23.9749 32.3481 23.7166 32.4627 23.3815 32.5954C23.0463 32.7299 22.6756 32.9056 22.2714 33.1082C21.4631 33.5152 20.5167 34.0369 19.5901 34.5299C18.6634 35.023 17.7525 35.4875 17.0625 35.7672C16.8338 35.8604 16.6918 35.8943 16.5301 35.9409C16.5282 35.7742 16.5183 35.6291 16.54 35.3852C16.607 34.6448 16.7845 33.6372 16.9856 32.6098C17.1847 31.5825 17.4075 30.5298 17.5593 29.6388C17.6318 29.2375 17.6871 28.8339 17.7249 28.4287C17.7545 28.0701 17.792 27.7885 17.6618 27.3779C17.5317 26.9673 17.3405 26.7595 17.1098 26.4815C16.8458 26.1728 16.5675 25.8742 16.2758 25.5868C15.639 24.945 14.8503 24.2117 14.0933 23.4855C13.4053 22.8412 12.7506 22.1681 12.1315 21.4685C11.9718 21.2802 11.8949 21.1566 11.8022 21.0185C11.96 20.9647 12.096 20.9109 12.3346 20.8553C13.0621 20.6886 14.0775 20.5469 15.1204 20.4196C16.1615 20.2923 17.234 20.1776 18.1311 20.0467C18.5806 19.9822 18.9848 19.9122 19.3357 19.8297C19.6867 19.7473 19.9666 19.6953 20.3176 19.4443C20.6685 19.1933 20.8105 18.9476 21.0017 18.6428C21.1949 18.338 21.3901 17.9795 21.5972 17.5779C22.0112 16.7728 22.4686 15.7993 22.928 14.8562C23.3264 14.0111 23.7658 13.1826 24.245 12.373C24.3751 12.1632 24.4698 12.052 24.5723 11.9211Z" fill="white"/>
</g>
<defs>
<clipPath id="clip0_6214_857">
<rect width="48" height="48" fill="white" transform="translate(0.5)"/>
</clipPath>
</defs>
</svg>