<svg width="19" height="16" viewBox="0 0 21 16" fill="none" xmlns="http://www.w3.org/2000/svg">
<path d="M16.2725 9.216H14.2145V12.8H12.2615V3H16.2585C18.5965 3 19.8425 4.218 19.8425 6.115C19.8425 7.998 18.5965 9.216 16.2725 9.216ZM16.2235 4.799H14.2145V7.431H16.2235C17.2875 7.431 17.8405 6.997 17.8405 6.115C17.8405 5.24 17.2875 4.799 16.2235 4.799Z" fill="#050505"/>
<path d="M10.8442 3L7.5822 7.823L10.9352 12.8H8.6462L6.3922 9.307L4.1312 12.8H1.8772L5.2232 7.823L1.9682 3H4.2642L6.4202 6.36L8.5902 3H10.8442Z" fill="#050505"/>
<path fill-rule="evenodd" clip-rule="evenodd" d="M15.2145 13.8H11.2615V2H16.2585C17.5925 2 18.755 2.34821 19.595 3.10176C20.4488 3.86773 20.8425 4.93888 20.8425 6.115C20.8425 7.2861 20.4476 8.35297 19.5966 9.1161C18.7593 9.86705 17.6009 10.216 16.2725 10.216H15.2145V13.8ZM14.2145 9.216H16.2725C18.5965 9.216 19.8425 7.998 19.8425 6.115C19.8425 4.218 18.5965 3 16.2585 3H12.2615V12.8H14.2145V9.216ZM14.2145 4.799H16.2235C17.2875 4.799 17.8405 5.24 17.8405 6.115C17.8405 6.997 17.2875 7.431 16.2235 7.431H14.2145V4.799ZM15.2145 6.431H16.2235C16.6448 6.431 16.7837 6.34106 16.8032 6.32534C16.8036 6.32506 16.8039 6.3248 16.8042 6.32455C16.8071 6.32229 16.8091 6.32076 16.814 6.30889C16.8219 6.28989 16.8405 6.2326 16.8405 6.115C16.8405 6.00015 16.8223 5.94379 16.8143 5.92472C16.809 5.91191 16.8065 5.90995 16.8024 5.90664C16.7818 5.88991 16.6414 5.799 16.2235 5.799H15.2145V6.431Z" fill="#10F48B"/>
<path fill-rule="evenodd" clip-rule="evenodd" d="M12.7279 2L8.78878 7.8241L12.8147 13.8H8.10144L6.39097 11.1493L4.67519 13.8H0L4.01757 7.82408L0.0869497 2H4.81077L6.42299 4.51256L8.04569 2H12.7279ZM6.42027 6.36L4.26427 3H1.96827L5.22327 7.823L1.87727 12.8H4.13127L6.39227 9.307L8.64627 12.8H10.9353L7.58227 7.823L10.8443 3H8.59027L6.42027 6.36Z" fill="#10F48B"/>
</svg>
