 <svg
            xmlns="http://www.w3.org/2000/svg"
            width="16"
            height="16"
            viewBox="0 0 16 16"
            fill="none"
        >
            <path
                fillRule="evenodd"
                clipRule="evenodd"
                d="M4.00501 2.27124C5.12505 1.15119 7.01515 1.23634 7.79503 2.63375L8.2277 3.40904C8.73698 4.32159 8.51996 5.47297 7.77442 6.22762C7.76449 6.24122 7.71187 6.31785 7.70531 6.45172C7.69695 6.6226 7.75764 7.01779 8.36992 7.63007C8.98201 8.24216 9.37714 8.303 9.54809 8.29468C9.68208 8.28817 9.75876 8.23551 9.77238 8.22557C10.527 7.48004 11.6784 7.26302 12.591 7.77229L13.3662 8.20497C14.7637 8.98485 14.8488 10.8749 13.7288 11.995C13.1297 12.5941 12.333 13.1264 11.3969 13.1619C10.0096 13.2145 7.70613 12.8562 5.42494 10.5751C3.14375 8.29387 2.78549 5.99038 2.83808 4.60309C2.87357 3.66696 3.4059 2.87035 4.00501 2.27124ZM6.92181 3.12108C6.52246 2.40552 5.44933 2.24113 4.71211 2.97835C4.19522 3.49524 3.85917 4.06579 3.83737 4.64097C3.79351 5.79787 4.07913 7.81504 6.13205 9.86795C8.18496 11.9209 10.2021 12.2065 11.359 12.1626C11.9342 12.1408 12.5048 11.8048 13.0217 11.2879C13.7589 10.5507 13.5945 9.47753 12.8789 9.07819L12.1036 8.64551C11.6214 8.37636 10.9439 8.46817 10.4684 8.9437L10.4682 8.94385C10.4215 8.99053 10.1243 9.26784 9.59668 9.2935C9.05653 9.31978 8.40271 9.07708 7.66281 8.33718C6.92268 7.59704 6.68006 6.94304 6.70651 6.40282C6.73235 5.87514 7.00983 5.57807 7.05626 5.53164L7.05628 5.53162C7.53182 5.05607 7.62363 4.37865 7.35448 3.89637L6.92181 3.12108Z"
                fill={iconColor || "#8E8E8E"}
            />
        </svg>