<svg
      xmlns="http://www.w3.org/2000/svg"
      width="16"
      height="16"
      viewBox="0 0 16 16"
      fill="none"
    >
      <path
        d="M12 5.33337C12 7.54251 10.2091 9.33337 8 9.33337C5.79086 9.33337 4 7.54251 4 5.33337C4 3.12423 5.79086 1.33337 8 1.33337C10.2091 1.33337 12 3.12423 12 5.33337Z"
        fill="#9035FF"
      />
      <path
        opacity="0.7"
        d="M9.05325 9.19321C8.71768 9.28456 8.36455 9.33332 8.00004 9.33332C6.31123 9.33332 4.86687 8.28673 4.28016 6.80676C2.582 7.26904 1.33337 8.82203 1.33337 10.6667C1.33337 12.8758 3.12423 14.6667 5.33337 14.6667C7.54251 14.6667 9.33337 12.8758 9.33337 10.6667C9.33337 10.1463 9.23402 9.6492 9.05325 9.19321Z"
        fill="#9035FF"
      />
      <path
        opacity="0.4"
        d="M9.05321 9.19309C9.23398 9.64908 9.33333 10.1462 9.33333 10.6665C9.33333 11.8512 8.81833 12.9156 8 13.648C8.70768 14.2814 9.64219 14.6665 10.6667 14.6665C12.8758 14.6665 14.6667 12.8757 14.6667 10.6665C14.6667 8.82191 13.418 7.26892 11.7199 6.80664C11.2598 7.96717 10.2724 8.86121 9.05321 9.19309Z"
        fill="#BF8AFF"
      />
    </svg>